<svg id="Layer_1" data-name="Layer 1" xmlns="http://www.w3.org/2000/svg" viewBox="0 0 1024 165.69"><defs><style>.cls-1{fill:#f2f2f2;}</style></defs><path class="cls-1" d="M44.74,138,30.65,165.8H0L82.85.1l55.3,110.6H107.08L82.85,62,58.41,110.7Zm121,27.76H134.83l-13.67-27.55h30.66Z"/><path class="cls-1" d="M203.37.1V100.55l-27.55,27.76V.1ZM286.21,138V165.8H175.82L203.37,138Z"/><path class="cls-1" d="M397.43,119.4,425,128.52a77.24,77.24,0,0,1-13.25,15.32,84.68,84.68,0,0,1-16.36,11.81,71.58,71.58,0,0,1-18.85,7.45,75.51,75.51,0,0,1-20.71,2.7c-23,0-42.25-8.29-58.41-24.45S273,105.94,273,83c0-22.78,8.08-42.25,24.44-58.41C313.34,8.18,332.81.1,355.8.1a81.07,81.07,0,0,1,32.31,6.42,86.09,86.09,0,0,1,26.51,18L394.74,44A52.88,52.88,0,0,0,355.8,27.86c-15.12,0-28.17,5.18-39.15,16.15C305.88,54.78,300.71,67.83,300.71,83s5.17,28.37,15.94,39.14S340.68,138,355.8,138a56.33,56.33,0,0,0,23-4.76A57.87,57.87,0,0,0,397.43,119.4ZM355.8,69.28H425L397.43,96.82H355.8Z"/><path class="cls-1" d="M573.9,24.54C590.26,40.7,598.54,60.17,598.54,83c0,23-8.28,42.46-24.64,58.4-16.16,16.16-35.42,24.45-58.41,24.45s-42.25-8.29-58.41-24.45S432.64,105.94,432.64,83c0-22.78,8.29-42.25,24.44-58.41C473,8.39,492.5.1,515.49.1S557.74,8.39,573.9,24.54ZM476.34,44C465.58,54.78,460.4,67.83,460.4,83s5.18,28.37,15.94,39.14,24,15.95,39.15,15.95,28.17-5.18,38.94-15.95c11-11,16.15-24,16.15-39.14A53.18,53.18,0,0,0,554.43,44a53.18,53.18,0,0,0-38.94-16.15C500.37,27.86,487.32,33,476.34,44Z"/><path class="cls-1" d="M721.43,83A78.35,78.35,0,0,1,715,114.84a90.08,90.08,0,0,1-17.81,26.51,84,84,0,0,1-26.51,17.82,79.49,79.49,0,0,1-32.1,6.63H583.5L611,138h27.55a57.06,57.06,0,0,0,21.54-4.14,54.21,54.21,0,0,0,17.6-12,59.78,59.78,0,0,0,11.81-17.61,54.47,54.47,0,0,0,0-42.66,56.62,56.62,0,0,0-12-17.61,57.58,57.58,0,0,0-17.6-12,56.78,56.78,0,0,0-21.33-4.14H611L583.5.1h55.09a80.23,80.23,0,0,1,32.1,6.63A85.6,85.6,0,0,1,697,24.54a86.92,86.92,0,0,1,18,26.51A78.43,78.43,0,0,1,721.43,83Z"/><path class="cls-1" d="M838,.1V27.86H755.18L727.63.1ZM755.18,69.28H838V96.82H727.63V69.28Zm0,68.76H838V165.8H727.63v-2.28Z"/><path class="cls-1" d="M941.77,60.58,924.38,83,859.34.1h35.42ZM924.38,83l17.39,22.37-47,60.48H859.34Zm35,0L941.77,60.58,989,.1h35Zm0,0L1024,165.8H989l-47.23-60.48Z"/></svg>