
<svg width="56" height="56" viewBox="0 0 56 56" fill="none" xmlns="http://www.w3.org/2000/svg">
<path d="M46.0001 28C46.0001 37.9411 37.9412 46 28.0001 46C18.0589 46 10.0001 37.9411 10.0001 28C10.0001 18.0589 18.0589 10 28.0001 10C37.9412 10 46.0001 18.0589 46.0001 28Z" fill="#FFEE55"/>
<path fill-rule="evenodd" clip-rule="evenodd" d="M55.84 28C55.84 43.3756 43.3756 55.84 28 55.84C12.6244 55.84 0.160034 43.3756 0.160034 28C0.160034 12.6244 12.6244 0.160034 28 0.160034C43.3756 0.160034 55.84 12.6244 55.84 28ZM28 46C37.9412 46 46 37.9412 46 28C46 18.0589 37.9412 10 28 10C18.0589 10 10 18.0589 10 28C10 37.9412 18.0589 46 28 46Z" fill="white"/>
<path d="M29.1968 20.969C29.6267 22.7541 29.4814 24.3243 28.8721 24.4762C28.2629 24.6281 27.4204 23.3041 26.9904 21.519C26.5604 19.734 26.7058 18.1637 27.3151 18.0119C27.9243 17.86 28.7668 19.184 29.1968 20.969Z" fill="black"/>
<path d="M36.2967 22.5038C35.3445 21.4925 33.4501 21.7666 32.0653 23.116C30.6806 24.4654 30.33 26.3791 31.2823 27.3904C32.2345 28.4016 34.129 28.1275 35.5137 26.7781C36.8984 25.4287 37.249 23.515 36.2967 22.5038Z" fill="black"/>
<path d="M28.7233 37.9888C29.3325 37.8369 29.4565 36.1779 29.0001 34.2832C28.5437 32.3886 27.6799 30.9758 27.0706 31.1277C26.4613 31.2795 26.3374 32.9386 26.7937 34.8332C27.2501 36.7279 28.114 38.1407 28.7233 37.9888Z" fill="black"/>
<path d="M22.5124 23.4296C24.2702 23.949 25.5546 24.8603 25.3812 25.4649C25.2078 26.0696 23.6423 26.1387 21.8846 25.6193C20.1268 25.0998 18.8424 24.1886 19.0157 23.584C19.1891 22.9793 20.7546 22.9102 22.5124 23.4296Z" fill="black"/>
<path d="M33.9211 30.2574C35.7868 30.8087 37.1586 31.7458 36.9853 32.3504C36.8119 32.9551 35.1589 32.9983 33.2933 32.447C31.4276 31.8957 30.0557 30.9586 30.2291 30.354C30.4024 29.7493 32.0554 29.7061 33.9211 30.2574Z" fill="black"/>
<path d="M24.4903 28.9887C24.0544 28.5359 22.6246 29.1949 21.2968 30.4606C19.969 31.7262 19.246 33.1193 19.6819 33.5721C20.1178 34.0249 21.5476 33.3659 22.8754 32.1002C24.2032 30.8345 24.9262 29.4415 24.4903 28.9887Z" fill="black"/>
</svg>