<svg width="198" height="25" viewBox="0 0 198 25" fill="none" xmlns="http://www.w3.org/2000/svg">
<path d="M132.377 4.73926V19.1168H129.442V4.73926H132.377Z" fill="white"/>
<path d="M144.357 9.42292V19.1487C144.357 22.1676 142.004 24.0235 139.125 24.0235C136.349 24.0235 134.275 22.303 134.076 19.8735L137.003 19.8895C137.123 20.925 138.032 21.371 139.228 21.371C140.361 21.371 141.414 20.7656 141.414 19.1885V17.9459C140.664 18.4318 139.707 18.7185 138.638 18.7185C135.958 18.7185 133.813 16.552 133.813 14.0588C133.813 11.1594 135.966 9.21582 138.638 9.21582C139.715 9.21582 140.664 9.50258 141.414 9.98846V9.46275L144.357 9.42292ZM141.422 15.15V12.7843C140.823 11.9161 139.994 11.6293 139.172 11.6293C137.729 11.6293 136.724 12.5931 136.724 14.0588C136.724 15.1341 137.729 16.313 139.172 16.313C139.994 16.305 140.823 16.0103 141.422 15.15Z" fill="white"/>
<path d="M156.065 14.1544C156.065 17.1494 153.847 19.2842 150.873 19.2842C147.874 19.2842 145.656 17.1494 145.656 14.1544C145.656 11.1833 147.874 9.00879 150.873 9.00879C153.847 9.00879 156.065 11.1833 156.065 14.1544ZM153.233 14.1544C153.233 12.7446 152.308 11.6055 150.873 11.6055C149.421 11.6055 148.496 12.7446 148.496 14.1544C148.496 15.6041 149.421 16.6874 150.873 16.6874C152.3 16.6795 153.233 15.6041 153.233 14.1544Z" fill="white"/>
<path d="M174.289 9.43901V19.101L171.41 19.117V18.5673C170.66 19.0532 169.703 19.3559 168.634 19.3559C165.955 19.3559 163.809 17.0858 163.809 14.2899C163.809 11.4781 165.963 9.20801 168.634 9.20801C169.711 9.20801 170.66 9.51069 171.41 9.99658V9.44697L174.289 9.43901ZM171.41 15.7715V12.8084C170.804 11.9481 169.958 11.7091 169.113 11.7091C167.638 11.7091 166.617 12.888 166.617 14.2979C166.617 15.6918 167.638 16.8707 169.113 16.8707C169.958 16.8628 170.804 16.6318 171.41 15.7715Z" fill="white"/>
<path d="M186.125 13.8676V19.1168H183.293V14.2101C183.293 12.633 182.504 11.7966 181.1 11.7966C180.366 11.7966 179.561 12.2188 178.867 13.0312V19.1168H175.972V9.45478H178.867V10.1876C179.657 9.55833 180.574 9.21582 181.666 9.21582C184.251 9.21582 186.125 11.0319 186.125 13.8676Z" fill="white"/>
<path d="M128.102 19.109H125.111L123.165 11.8844L118.978 19.109H115.636L122.096 7.92557L121.059 4.03846L112.342 19.117H109L120.046 0H122.973L124.258 4.74738H127.28L125.215 8.33181L128.102 19.109Z" fill="white"/>
<path d="M197.818 4.73941V19.117H194.883V18.5673C194.133 19.0532 193.176 19.3559 192.107 19.3559C189.427 19.3559 187.282 17.0858 187.282 14.274C187.282 11.4781 189.435 9.208 192.107 9.208C193.184 9.208 194.133 9.51068 194.883 9.99657V4.73145L197.818 4.73941ZM194.883 15.7794V12.7924C194.269 11.9242 193.415 11.6852 192.57 11.6852C191.086 11.6852 190.057 12.8721 190.057 14.274C190.057 15.6998 191.086 16.8866 192.57 16.8866C193.415 16.8866 194.269 16.6477 194.883 15.7794Z" fill="white"/>
<path d="M163.283 11.8924C162.645 11.9721 161.145 12.0438 160.268 13.2545V19.125H157.373V9.47097H160.268V10.1958C160.93 9.63028 161.927 9.29573 163.283 9.43114V11.8924Z" fill="white"/>
<path d="M1.58523 18V4.90909H6.00852C7.03551 4.90909 7.875 5.09446 8.52699 5.4652C9.18324 5.83168 9.66903 6.32812 9.98438 6.95455C10.2997 7.58097 10.4574 8.27983 10.4574 9.05114C10.4574 9.82244 10.2997 10.5234 9.98438 11.1541C9.6733 11.7848 9.19176 12.2876 8.53977 12.6626C7.88778 13.0334 7.05256 13.2188 6.03409 13.2188H2.86364V11.8125H5.98295C6.68608 11.8125 7.25071 11.6911 7.67685 11.4482C8.10298 11.2053 8.41193 10.8771 8.60369 10.4638C8.79972 10.0462 8.89773 9.57528 8.89773 9.05114C8.89773 8.52699 8.79972 8.05824 8.60369 7.64489C8.41193 7.23153 8.10085 6.90767 7.67045 6.6733C7.24006 6.43466 6.66903 6.31534 5.95739 6.31534H3.17045V18H1.58523ZM16.6896 18.2045C15.8033 18.2045 15.0256 17.9936 14.3565 17.5717C13.6918 17.1499 13.1719 16.5597 12.7969 15.8011C12.4261 15.0426 12.2408 14.1562 12.2408 13.142C12.2408 12.1193 12.4261 11.2266 12.7969 10.4638C13.1719 9.70099 13.6918 9.10866 14.3565 8.68679C15.0256 8.26491 15.8033 8.05398 16.6896 8.05398C17.576 8.05398 18.3516 8.26491 19.0163 8.68679C19.6854 9.10866 20.2053 9.70099 20.576 10.4638C20.951 11.2266 21.1385 12.1193 21.1385 13.142C21.1385 14.1562 20.951 15.0426 20.576 15.8011C20.2053 16.5597 19.6854 17.1499 19.0163 17.5717C18.3516 17.9936 17.576 18.2045 16.6896 18.2045ZM16.6896 16.8494C17.3629 16.8494 17.9169 16.6768 18.3516 16.3317C18.7862 15.9865 19.108 15.5327 19.3168 14.9702C19.5256 14.4077 19.63 13.7983 19.63 13.142C19.63 12.4858 19.5256 11.8743 19.3168 11.3075C19.108 10.7408 18.7862 10.2827 18.3516 9.93324C17.9169 9.58381 17.3629 9.40909 16.6896 9.40909C16.0163 9.40909 15.4624 9.58381 15.0277 9.93324C14.593 10.2827 14.2713 10.7408 14.0625 11.3075C13.8537 11.8743 13.7493 12.4858 13.7493 13.142C13.7493 13.7983 13.8537 14.4077 14.0625 14.9702C14.2713 15.5327 14.593 15.9865 15.0277 16.3317C15.4624 16.6768 16.0163 16.8494 16.6896 16.8494ZM25.3317 18L22.3402 8.18182H23.9254L26.0476 15.6989H26.1499L28.2464 8.18182H29.8572L31.9283 15.6733H32.0305L34.1527 8.18182H35.7379L32.7464 18H31.2635L29.1158 10.4574H28.9624L26.8146 18H25.3317ZM41.5147 18.2045C40.5687 18.2045 39.7527 17.9957 39.0666 17.5781C38.3848 17.1562 37.8585 16.5682 37.4877 15.8139C37.1213 15.0554 36.938 14.1733 36.938 13.1676C36.938 12.1619 37.1213 11.2756 37.4877 10.5085C37.8585 9.73722 38.3741 9.13636 39.0346 8.70597C39.6994 8.27131 40.475 8.05398 41.3613 8.05398C41.8727 8.05398 42.3777 8.1392 42.8762 8.30966C43.3748 8.48011 43.8287 8.7571 44.2377 9.14062C44.6468 9.51989 44.9728 10.0227 45.2157 10.6491C45.4586 11.2756 45.5801 12.0469 45.5801 12.9631V13.6023H38.0119V12.2983H44.046C44.046 11.7443 43.9352 11.25 43.7136 10.8153C43.4963 10.3807 43.1852 10.0376 42.7804 9.78622C42.3798 9.5348 41.9068 9.40909 41.3613 9.40909C40.7605 9.40909 40.2406 9.55824 39.8017 9.85653C39.367 10.1506 39.0325 10.5341 38.7981 11.0071C38.5637 11.4801 38.4466 11.9872 38.4466 12.5284V13.3977C38.4466 14.1392 38.5744 14.7678 38.8301 15.2834C39.09 15.7947 39.4501 16.1847 39.9103 16.4531C40.3706 16.7173 40.9054 16.8494 41.5147 16.8494C41.911 16.8494 42.269 16.794 42.5886 16.6832C42.9125 16.5682 43.1916 16.3977 43.426 16.1719C43.6603 15.9418 43.8414 15.6562 43.9693 15.3153L45.4267 15.7244C45.2733 16.2188 45.0154 16.6534 44.6532 17.0284C44.291 17.3991 43.8436 17.6889 43.3109 17.8977C42.7782 18.1023 42.1795 18.2045 41.5147 18.2045ZM47.8748 18V8.18182H49.3322V9.66477H49.4345C49.6135 9.17898 49.9373 8.7848 50.4061 8.48224C50.8748 8.17969 51.4032 8.02841 51.9913 8.02841C52.1021 8.02841 52.2406 8.03054 52.4068 8.0348C52.573 8.03906 52.6987 8.04545 52.7839 8.05398V9.58807C52.7328 9.57528 52.6156 9.55611 52.4324 9.53054C52.2534 9.50071 52.0637 9.4858 51.8635 9.4858C51.3862 9.4858 50.9601 9.58594 50.585 9.78622C50.2143 9.98224 49.9203 10.255 49.7029 10.6044C49.4899 10.9496 49.3833 11.3437 49.3833 11.7869V18H47.8748ZM58.3897 18.2045C57.4437 18.2045 56.6277 17.9957 55.9416 17.5781C55.2598 17.1562 54.7335 16.5682 54.3627 15.8139C53.9963 15.0554 53.813 14.1733 53.813 13.1676C53.813 12.1619 53.9963 11.2756 54.3627 10.5085C54.7335 9.73722 55.2491 9.13636 55.9096 8.70597C56.5744 8.27131 57.35 8.05398 58.2363 8.05398C58.7477 8.05398 59.2527 8.1392 59.7512 8.30966C60.2498 8.48011 60.7037 8.7571 61.1127 9.14062C61.5218 9.51989 61.8478 10.0227 62.0907 10.6491C62.3336 11.2756 62.4551 12.0469 62.4551 12.9631V13.6023H54.8869V12.2983H60.921C60.921 11.7443 60.8102 11.25 60.5886 10.8153C60.3713 10.3807 60.0602 10.0376 59.6554 9.78622C59.2548 9.5348 58.7818 9.40909 58.2363 9.40909C57.6355 9.40909 57.1156 9.55824 56.6767 9.85653C56.242 10.1506 55.9075 10.5341 55.6731 11.0071C55.4387 11.4801 55.3216 11.9872 55.3216 12.5284V13.3977C55.3216 14.1392 55.4494 14.7678 55.7051 15.2834C55.965 15.7947 56.3251 16.1847 56.7853 16.4531C57.2456 16.7173 57.7804 16.8494 58.3897 16.8494C58.786 16.8494 59.144 16.794 59.4636 16.6832C59.7875 16.5682 60.0666 16.3977 60.301 16.1719C60.5353 15.9418 60.7164 15.6562 60.8443 15.3153L62.3017 15.7244C62.1483 16.2188 61.8904 16.6534 61.5282 17.0284C61.166 17.3991 60.7186 17.6889 60.1859 17.8977C59.6532 18.1023 59.0545 18.2045 58.3897 18.2045ZM68.4572 18.2045C67.639 18.2045 66.9167 17.9979 66.2903 17.5845C65.6639 17.1669 65.1738 16.5788 64.8201 15.8203C64.4664 15.0575 64.2896 14.1562 64.2896 13.1165C64.2896 12.0852 64.4664 11.1903 64.8201 10.4318C65.1738 9.6733 65.666 9.08736 66.2967 8.67401C66.9274 8.26065 67.6561 8.05398 68.4828 8.05398C69.122 8.05398 69.627 8.16051 69.9977 8.37358C70.3727 8.58239 70.6582 8.82102 70.8542 9.08949C71.0545 9.35369 71.2101 9.57102 71.3208 9.74148H71.4487V4.90909H72.9572V18H71.4998V16.4915H71.3208C71.2101 16.6705 71.0524 16.8963 70.8478 17.169C70.6433 17.4375 70.3514 17.6783 69.9721 17.8913C69.5929 18.1001 69.0879 18.2045 68.4572 18.2045ZM68.6618 16.8494C69.2669 16.8494 69.7782 16.6918 70.1958 16.3764C70.6135 16.0568 70.9309 15.6158 71.1483 15.0533C71.3656 14.4865 71.4743 13.8324 71.4743 13.0909C71.4743 12.358 71.3677 11.7166 71.1547 11.1669C70.9416 10.6129 70.6262 10.1825 70.2086 9.87571C69.791 9.56463 69.2754 9.40909 68.6618 9.40909C68.0225 9.40909 67.4899 9.57315 67.0637 9.90128C66.6419 10.2251 66.3244 10.6662 66.1113 11.2244C65.9025 11.7784 65.7981 12.4006 65.7981 13.0909C65.7981 13.7898 65.9047 14.4247 66.1177 14.9957C66.335 15.5625 66.6547 16.0142 67.0765 16.3509C67.5027 16.6832 68.0311 16.8494 68.6618 16.8494ZM81.1966 18V4.90909H82.7051V9.74148H82.8329C82.9437 9.57102 83.0971 9.35369 83.2931 9.08949C83.4934 8.82102 83.7789 8.58239 84.1497 8.37358C84.5247 8.16051 85.0318 8.05398 85.671 8.05398C86.4977 8.05398 87.2264 8.26065 87.8571 8.67401C88.4877 9.08736 88.9799 9.6733 89.3336 10.4318C89.6873 11.1903 89.8642 12.0852 89.8642 13.1165C89.8642 14.1562 89.6873 15.0575 89.3336 15.8203C88.9799 16.5788 88.4899 17.1669 87.8635 17.5845C87.237 17.9979 86.5147 18.2045 85.6966 18.2045C85.0659 18.2045 84.5609 18.1001 84.1816 17.8913C83.8024 17.6783 83.5105 17.4375 83.3059 17.169C83.1014 16.8963 82.9437 16.6705 82.8329 16.4915H82.6539V18H81.1966ZM82.6795 13.0909C82.6795 13.8324 82.7882 14.4865 83.0055 15.0533C83.2228 15.6158 83.5403 16.0568 83.9579 16.3764C84.3755 16.6918 84.8869 16.8494 85.492 16.8494C86.1227 16.8494 86.649 16.6832 87.0708 16.3509C87.497 16.0142 87.8166 15.5625 88.0297 14.9957C88.247 14.4247 88.3556 13.7898 88.3556 13.0909C88.3556 12.4006 88.2491 11.7784 88.036 11.2244C87.8272 10.6662 87.5098 10.2251 87.0836 9.90128C86.6618 9.57315 86.1312 9.40909 85.492 9.40909C84.8784 9.40909 84.3627 9.56463 83.9451 9.87571C83.5275 10.1825 83.2122 10.6129 82.9991 11.1669C82.786 11.7166 82.6795 12.358 82.6795 13.0909ZM92.7917 21.6818C92.536 21.6818 92.3081 21.6605 92.1078 21.6179C91.9075 21.5795 91.769 21.5412 91.6923 21.5028L92.0758 20.1733C92.4423 20.267 92.7662 20.3011 93.0474 20.2756C93.3287 20.25 93.5779 20.1243 93.7953 19.8984C94.0169 19.6768 94.2193 19.3168 94.4025 18.8182L94.6838 18.0511L91.0531 8.18182H92.6895L95.3997 16.0057H95.502L98.2122 8.18182H99.8485L95.6809 19.4318C95.4934 19.9389 95.2612 20.3587 94.9842 20.6911C94.7072 21.0277 94.3855 21.277 94.019 21.4389C93.6568 21.6009 93.2477 21.6818 92.7917 21.6818Z" fill="white"/>
</svg>
