<svg width="300" height="151" viewBox="0 0 300 151" fill="none" xmlns="http://www.w3.org/2000/svg">
<g clip-path="url(#clip0_408_428)">
<path d="M137.48 70.2969V70.306L137.471 70.315V76.7369V84.8773L126.057 95.0167V100.127L141.089 86.9034V76.7369V75.1631V67.0588L140.14 67.9181L137.48 70.2969Z" fill="url(#paint0_linear_408_428)"/>
<path d="M118.929 50.0363L115.32 46.8616V70.6045L118.929 73.7883V50.0363Z" fill="url(#paint1_linear_408_428)"/>
<path d="M130.2 36.6047L126.591 33.439V76.9721L118.93 83.7739V88.9114L130.2 78.9891V36.6047Z" fill="url(#paint2_linear_408_428)"/>
<path d="M181.945 50.0363V73.7883L185.554 70.6045V46.8616L181.945 50.0363Z" fill="url(#paint3_linear_408_428)"/>
<path d="M174.285 33.439L170.676 36.6047V78.9891L181.946 88.9114V83.7739L174.285 76.9721V33.439Z" fill="url(#paint4_linear_408_428)"/>
<path d="M141.461 98.9061L150.443 106.884L159.415 98.9061L150.443 90.9194L141.461 98.9061Z" fill="url(#paint5_linear_408_428)"/>
<path d="M141.08 32.3537V21.744V17.1221L137.471 20.2968V21.744V32.3537V33.8009L141.08 36.9756V32.3537Z" fill="url(#paint6_linear_408_428)"/>
<path d="M163.412 32.3537V21.744V20.2968L159.803 17.1221V21.744V32.3537V36.9756L163.412 33.8009V32.3537Z" fill="url(#paint7_linear_408_428)"/>
<path d="M163.149 60.7908L160.264 58.2583L159.794 57.8422L143.513 43.5241L147.212 40.277L150.432 37.4369L153.335 39.9875L153.399 39.9966H153.335L159.784 45.6587V52.0444L163.412 48.8516V43.7502L159.784 40.5483L159.549 40.3403H159.558L153.345 34.8862L152.241 33.9184V0L148.632 3.16572V33.9094L147.529 34.8862L141.722 39.9875L141.794 39.9966H141.722L141.089 40.5483L137.706 43.5241L140.609 46.0748L141.089 46.4999L157.36 60.8089L150.441 66.8961L141.089 58.6743L141.08 58.6653V52.3158L137.471 55.4905V60.6099L141.089 63.7847L142.88 65.3585L142.925 65.4037L147.529 69.4468L148.623 70.4056H148.632V82.9961L152.241 86.2342V70.4237L153.345 69.4468L159.73 63.8299L159.794 63.7757L163.149 60.7908Z" fill="url(#paint8_linear_408_428)"/>
<path d="M163.413 72.8204H163.404V70.2969L159.795 67.0588V72.8204V75.7148V86.9034L174.828 100.127V95.0167L163.413 84.8773V72.8204Z" fill="url(#paint9_linear_408_428)"/>
<path d="M137.48 70.2969V70.306L137.471 70.315V76.7369V84.8773L126.057 95.0167V100.127L141.089 86.9034V76.7369V75.1631V67.0588L140.14 67.9181L137.48 70.2969Z" fill="white"/>
<path d="M118.929 50.0363L115.32 46.8616V70.6045L118.929 73.7883V50.0363Z" fill="white"/>
<path d="M130.2 36.6047L126.591 33.439V76.9721L118.93 83.7739V88.9114L130.2 78.9891V36.6047Z" fill="white"/>
<path d="M181.945 50.0363V73.7883L185.554 70.6045V46.8616L181.945 50.0363Z" fill="white"/>
<path d="M174.285 33.439L170.676 36.6047V78.9891L181.946 88.9114V83.7739L174.285 76.9721V33.439Z" fill="white"/>
<path d="M141.461 98.9061L150.443 106.884L159.415 98.9061L150.443 90.9194L141.461 98.9061Z" fill="white"/>
<path d="M141.08 32.3537V21.744V17.1221L137.471 20.2968V21.744V32.3537V33.8009L141.08 36.9756V32.3537Z" fill="white"/>
<path d="M163.412 32.3537V21.744V20.2968L159.803 17.1221V21.744V32.3537V36.9756L163.412 33.8009V32.3537Z" fill="white"/>
<path d="M163.149 60.7908L160.264 58.2583L159.794 57.8422L143.513 43.5241L147.212 40.277L150.432 37.4369L153.335 39.9875L153.399 39.9966H153.335L159.784 45.6587V52.0444L163.412 48.8516V43.7502L159.784 40.5483L159.549 40.3403H159.558L153.345 34.8862L152.241 33.9184V0L148.632 3.16572V33.9094L147.529 34.8862L141.722 39.9875L141.794 39.9966H141.722L141.089 40.5483L137.706 43.5241L140.609 46.0748L141.089 46.4999L157.36 60.8089L150.441 66.8961L141.089 58.6743L141.08 58.6653V52.3158L137.471 55.4905V60.6099L141.089 63.7847L142.88 65.3585L142.925 65.4037L147.529 69.4468L148.623 70.4056H148.632V82.9961L152.241 86.2342V70.4237L153.345 69.4468L159.73 63.8299L159.794 63.7757L163.149 60.7908Z" fill="white"/>
<path d="M163.413 72.8204H163.404V70.2969L159.795 67.0588V72.8204V75.7148V86.9034L174.828 100.127V95.0167L163.413 84.8773V72.8204Z" fill="white"/>
</g>
<g clip-path="url(#clip1_408_428)">
<path d="M1.8789 144.85L0 146.177C0.326277 146.86 0.770688 147.494 1.33323 148.079C1.89578 148.664 2.55208 149.131 3.30214 149.48C4.04845 149.828 4.85665 150.003 5.72672 150.003C6.36802 150.003 6.98494 149.9 7.57749 149.693C8.17004 149.487 8.70071 149.194 9.16949 148.816C9.63828 148.437 10.0114 147.97 10.289 147.415C10.5702 146.86 10.7109 146.234 10.7109 145.536C10.7109 144.88 10.5965 144.306 10.3677 143.815C10.1389 143.323 9.84267 142.9 9.47889 142.543C9.11512 142.187 8.70821 141.887 8.25817 141.643C7.81188 141.403 7.35997 141.204 6.90244 141.047C6.10362 140.762 5.45482 140.484 4.95603 140.214C4.45724 139.941 4.09158 139.652 3.85906 139.348C3.62279 139.041 3.50466 138.694 3.50466 138.307C3.50466 137.88 3.6678 137.507 3.99407 137.188C4.3241 136.865 4.83789 136.704 5.53545 136.704C6.03424 136.704 6.47303 136.802 6.85181 136.997C7.22684 137.188 7.55686 137.443 7.84189 137.762C8.12691 138.084 8.37068 138.431 8.5732 138.802L10.604 137.649C10.3602 137.12 10.0096 136.614 9.55203 136.13C9.09824 135.647 8.54319 135.243 7.88689 134.921C7.23059 134.602 6.46178 134.443 5.58045 134.443C4.68038 134.443 3.87782 134.613 3.17276 134.955C2.4677 135.296 1.90891 135.768 1.49637 136.372C1.08384 136.98 0.877571 137.683 0.877571 138.482C0.877571 139.179 1.01258 139.774 1.2826 140.265C1.55263 140.756 1.8939 141.169 2.30644 141.503C2.71897 141.84 3.15401 142.12 3.61154 142.341C4.06908 142.562 4.48161 142.736 4.84914 142.864C5.4792 143.093 6.03612 143.323 6.51991 143.556C7.00369 143.792 7.37685 144.077 7.63937 144.411C7.90564 144.749 8.03878 145.187 8.03878 145.727C8.03878 146.327 7.82501 146.811 7.39748 147.179C6.96994 147.55 6.41302 147.736 5.72672 147.736C5.17167 147.736 4.66163 147.616 4.19659 147.376C3.7353 147.132 3.31527 146.796 2.93649 146.369C2.56146 145.941 2.20893 145.435 1.8789 144.85ZM23.6438 142.2C23.6438 141.173 23.8632 140.258 24.302 139.455C24.7445 138.649 25.3464 138.017 26.1077 137.559C26.8728 137.105 27.7466 136.878 28.7292 136.878C29.7418 136.878 30.6287 137.105 31.3901 137.559C32.1514 138.017 32.7458 138.649 33.1733 139.455C33.6009 140.258 33.8146 141.173 33.8146 142.2C33.8146 143.228 33.599 144.139 33.1677 144.934C32.7327 145.733 32.1326 146.365 31.3675 146.83C30.6062 147.291 29.7268 147.522 28.7292 147.522C27.7466 147.522 26.8728 147.291 26.1077 146.83C25.3464 146.365 24.7445 145.733 24.302 144.934C23.8632 144.139 23.6438 143.228 23.6438 142.2ZM20.9717 142.2C20.9717 143.31 21.163 144.343 21.5455 145.3C21.9318 146.256 22.4737 147.083 23.1713 147.781C23.8688 148.478 24.692 149.022 25.6408 149.412C26.5897 149.806 27.6191 150.003 28.7292 150.003C29.8693 150.003 30.91 149.806 31.8513 149.412C32.7927 149.022 33.6121 148.478 34.3097 147.781C35.0072 147.083 35.5491 146.256 35.9354 145.3C36.318 144.343 36.5092 143.31 36.5092 142.2C36.5092 141.075 36.318 140.042 35.9354 139.101C35.5491 138.159 35.0035 137.344 34.2984 136.653C33.5934 135.963 32.7702 135.421 31.8288 135.028C30.8875 134.638 29.8543 134.443 28.7292 134.443C27.6304 134.443 26.6084 134.638 25.6633 135.028C24.7145 135.421 23.8876 135.963 23.1825 136.653C22.4775 137.344 21.9318 138.159 21.5455 139.101C21.163 140.042 20.9717 141.075 20.9717 142.2ZM49.099 134.718V136.985H55.7933V134.718H49.099ZM49.099 140.726V142.926H55.5795V140.726H49.099ZM50.0216 134.718H47.5407V149.682H50.0216V134.718ZM65.0922 134.718V137.047H69.0469V149.682H71.5671V137.047H75.5218V134.718H65.0922ZM87.4702 147.46V149.682H95.0196V147.46H87.4702ZM87.4702 134.718V136.94H95.0196V134.718H87.4702ZM87.4702 140.574V142.757H94.5921V140.574H87.4702ZM88.3928 134.718H85.912V149.682H88.3928V134.718ZM108.549 142.2C108.549 141.131 108.787 140.201 109.263 139.41C109.743 138.619 110.368 138.005 111.137 137.57C111.905 137.135 112.745 136.918 113.657 136.918C114.369 136.918 115.014 137.012 115.592 137.199C116.169 137.383 116.687 137.636 117.145 137.959C117.598 138.277 117.998 138.637 118.343 139.039V136.046C117.728 135.517 117.053 135.118 116.318 134.848C115.586 134.578 114.671 134.443 113.572 134.443C112.477 134.443 111.455 134.63 110.506 135.005C109.558 135.384 108.734 135.918 108.037 136.608C107.339 137.302 106.794 138.122 106.4 139.067C106.01 140.016 105.815 141.06 105.815 142.2C105.815 143.325 106.01 144.362 106.4 145.311C106.794 146.26 107.339 147.083 108.037 147.781C108.734 148.478 109.558 149.013 110.506 149.384C111.455 149.755 112.477 149.941 113.572 149.941C114.671 149.941 115.586 149.804 116.318 149.53C117.053 149.26 117.728 148.868 118.343 148.354V145.345C117.998 145.757 117.598 146.123 117.145 146.442C116.687 146.764 116.169 147.017 115.592 147.201C115.014 147.389 114.369 147.482 113.657 147.482C112.745 147.482 111.905 147.261 111.137 146.819C110.368 146.376 109.743 145.759 109.263 144.968C108.787 144.177 108.549 143.254 108.549 142.2ZM130.994 140.49V142.819H141.683V140.49H130.994ZM142.56 134.718H140.04V149.682H142.56V134.718ZM132.513 134.718H129.993V149.682H132.513V134.718ZM171.29 142.2C171.29 141.131 171.528 140.201 172.004 139.41C172.484 138.619 173.108 138.005 173.877 137.57C174.646 137.135 175.486 136.918 176.397 136.918C177.11 136.918 177.755 137.012 178.333 137.199C178.91 137.383 179.428 137.636 179.885 137.959C180.339 138.277 180.738 138.637 181.083 139.039V136.046C180.468 135.517 179.793 135.118 179.058 134.848C178.327 134.578 177.412 134.443 176.313 134.443C175.218 134.443 174.196 134.63 173.247 135.005C172.298 135.384 171.475 135.918 170.778 136.608C170.08 137.302 169.534 138.122 169.141 139.067C168.751 140.016 168.556 141.06 168.556 142.2C168.556 143.325 168.751 144.362 169.141 145.311C169.534 146.26 170.08 147.083 170.778 147.781C171.475 148.478 172.298 149.013 173.247 149.384C174.196 149.755 175.218 149.941 176.313 149.941C177.412 149.941 178.327 149.804 179.058 149.53C179.793 149.26 180.468 148.868 181.083 148.354V145.345C180.738 145.757 180.339 146.123 179.885 146.442C179.428 146.764 178.91 147.017 178.333 147.201C177.755 147.389 177.11 147.482 176.397 147.482C175.486 147.482 174.646 147.261 173.877 146.819C173.108 146.376 172.484 145.759 172.004 144.968C171.528 144.177 171.29 143.254 171.29 142.2ZM194.697 143.697L194.208 145.834H202.117L201.645 143.697H194.697ZM195.766 144.445L198.117 138.949L200.514 144.507L200.553 145.131L202.584 149.682H205.453L198.117 133.886L190.81 149.682H193.651L195.727 145.002L195.766 144.445ZM218.234 134.718H215.714V149.682H218.234V134.718ZM217.21 134.718V136.94H220.22C221.09 136.94 221.789 137.143 222.318 137.548C222.843 137.957 223.106 138.56 223.106 139.359C223.106 140.154 222.843 140.76 222.318 141.176C221.789 141.589 221.09 141.795 220.22 141.795H217.21V144.017H220.22C221.319 144.017 222.267 143.828 223.066 143.449C223.865 143.074 224.488 142.536 224.934 141.835C225.384 141.137 225.609 140.312 225.609 139.359C225.609 138.403 225.384 137.58 224.934 136.89C224.488 136.196 223.865 135.662 223.066 135.286C222.267 134.908 221.319 134.718 220.22 134.718H217.21ZM239.183 134.718H236.618V149.682H239.183V134.718ZM249.551 134.718V137.047H253.506V149.682H256.026V137.047H259.98V134.718H249.551ZM270.523 143.697L270.028 145.834H277.937L277.47 143.697H270.523ZM271.591 144.445L273.943 138.949L276.334 144.507L276.379 145.131L278.41 149.682H281.273L273.943 133.886L266.63 149.682H269.476L271.546 145.002L271.591 144.445ZM294.06 134.718H291.534V149.682H300V147.415H294.06V134.718Z" fill="white"/>
</g>
<defs>
<linearGradient id="paint0_linear_408_428" x1="133.573" y1="125.281" x2="133.573" y2="-121.292" gradientUnits="userSpaceOnUse">
<stop stop-color="#BB6C29"/>
<stop offset="0.51" stop-color="#FDE883"/>
<stop offset="1" stop-color="#BB6C29"/>
</linearGradient>
<linearGradient id="paint1_linear_408_428" x1="117.129" y1="125.281" x2="117.129" y2="-121.292" gradientUnits="userSpaceOnUse">
<stop stop-color="#BB6C29"/>
<stop offset="0.51" stop-color="#FDE883"/>
<stop offset="1" stop-color="#BB6C29"/>
</linearGradient>
<linearGradient id="paint2_linear_408_428" x1="124.565" y1="125.281" x2="124.565" y2="-121.292" gradientUnits="userSpaceOnUse">
<stop stop-color="#BB6C29"/>
<stop offset="0.51" stop-color="#FDE883"/>
<stop offset="1" stop-color="#BB6C29"/>
</linearGradient>
<linearGradient id="paint3_linear_408_428" x1="183.745" y1="125.281" x2="183.745" y2="-121.292" gradientUnits="userSpaceOnUse">
<stop stop-color="#BB6C29"/>
<stop offset="0.51" stop-color="#FDE883"/>
<stop offset="1" stop-color="#BB6C29"/>
</linearGradient>
<linearGradient id="paint4_linear_408_428" x1="176.311" y1="125.281" x2="176.311" y2="-121.292" gradientUnits="userSpaceOnUse">
<stop stop-color="#BB6C29"/>
<stop offset="0.51" stop-color="#FDE883"/>
<stop offset="1" stop-color="#BB6C29"/>
</linearGradient>
<linearGradient id="paint5_linear_408_428" x1="150.443" y1="125.281" x2="150.443" y2="-121.292" gradientUnits="userSpaceOnUse">
<stop stop-color="#BB6C29"/>
<stop offset="0.51" stop-color="#FDE883"/>
<stop offset="1" stop-color="#BB6C29"/>
</linearGradient>
<linearGradient id="paint6_linear_408_428" x1="139.28" y1="5.5969e-05" x2="139.28" y2="5.5969e-05" gradientUnits="userSpaceOnUse">
<stop stop-color="#BB6C29"/>
<stop offset="0.51" stop-color="#FDE883"/>
<stop offset="1" stop-color="#BB6C29"/>
</linearGradient>
<linearGradient id="paint7_linear_408_428" x1="161.612" y1="125.281" x2="161.612" y2="-121.292" gradientUnits="userSpaceOnUse">
<stop stop-color="#BB6C29"/>
<stop offset="0.51" stop-color="#FDE883"/>
<stop offset="1" stop-color="#BB6C29"/>
</linearGradient>
<linearGradient id="paint8_linear_408_428" x1="150.441" y1="125.281" x2="150.441" y2="-121.292" gradientUnits="userSpaceOnUse">
<stop stop-color="#BB6C29"/>
<stop offset="0.51" stop-color="#FDE883"/>
<stop offset="1" stop-color="#BB6C29"/>
</linearGradient>
<linearGradient id="paint9_linear_408_428" x1="167.311" y1="125.281" x2="167.311" y2="-121.292" gradientUnits="userSpaceOnUse">
<stop stop-color="#BB6C29"/>
<stop offset="0.51" stop-color="#FDE883"/>
<stop offset="1" stop-color="#BB6C29"/>
</linearGradient>
<clipPath id="clip0_408_428">
<rect width="70.2337" height="106.884" fill="white" transform="translate(115.32)"/>
</clipPath>
<clipPath id="clip1_408_428">
<rect width="300" height="16.1169" fill="white" transform="translate(0 133.886)"/>
</clipPath>
</defs>
</svg>
