<svg id="Layer_1" data-name="Layer 1" xmlns="http://www.w3.org/2000/svg" xmlns:xlink="http://www.w3.org/1999/xlink" viewBox="0 0 510.24 510.24"><defs><style>.cls-1{fill:url(#radial-gradient);}.cls-2{fill:#fff;}</style><radialGradient id="radial-gradient" cx="155.38" cy="113.6" r="282.14" gradientUnits="userSpaceOnUse"><stop offset="0" stop-color="#ffc22a"/><stop offset="1" stop-color="#f37820"/></radialGradient></defs><circle class="cls-1" cx="255.12" cy="255.12" r="242"/><path class="cls-2" d="M248.54,423.39l.11-66.52a6.58,6.58,0,0,0-3.29-5.72l-68.73-39.84a6.6,6.6,0,0,0-6.6,0l-57.66,33.16a6.59,6.59,0,0,0,0,11.43l126.28,73.2A6.6,6.6,0,0,0,248.54,423.39Z"/><path class="cls-2" d="M167.07,294.69l.14-79.45a6.59,6.59,0,0,0-3.29-5.72l-57.55-33.36a6.6,6.6,0,0,0-9.91,5.7l-.25,146a6.6,6.6,0,0,0,9.89,5.73l57.67-33.16A6.59,6.59,0,0,0,167.07,294.69Z"/><path class="cls-2" d="M397.56,345,340,311.59a6.62,6.62,0,0,0-6.6,0l-68.87,39.6a6.59,6.59,0,0,0-3.31,5.71l-.12,66.53a6.6,6.6,0,0,0,9.89,5.73l126.54-72.77A6.6,6.6,0,0,0,397.56,345Z"/><path class="cls-2" d="M112.67,165.28l57.56,33.37a6.62,6.62,0,0,0,6.6,0l68.87-39.61a6.61,6.61,0,0,0,3.31-5.71l.11-66.52a6.59,6.59,0,0,0-9.88-5.73L112.69,153.86A6.59,6.59,0,0,0,112.67,165.28Z"/><path class="cls-2" d="M261.7,86.84l-.12,66.52a6.6,6.6,0,0,0,3.29,5.72l68.74,39.85a6.6,6.6,0,0,0,6.59,0l57.67-33.16a6.6,6.6,0,0,0,0-11.43L271.6,81.15A6.59,6.59,0,0,0,261.7,86.84Z"/><polygon class="cls-2" points="414.06 163.73 414.06 163.72 414.05 163.72 414.06 163.73"/><path class="cls-2" d="M343.16,215.55,343,295a6.62,6.62,0,0,0,3.29,5.72l57.56,33.36a6.6,6.6,0,0,0,9.9-5.7l.26-146a6.6,6.6,0,0,0-9.89-5.73l-57.67,33.16A6.62,6.62,0,0,0,343.16,215.55Z"/><polygon class="cls-2" points="96.18 346.51 96.18 346.51 96.18 346.51 96.18 346.51"/><polygon class="cls-2" points="254.8 438.46 254.8 438.46 254.8 438.46 254.8 438.46"/><polygon class="cls-2" points="255.44 71.78 255.44 71.77 255.43 71.78 255.44 71.78"/></svg>