<svg id="Layer_1" data-name="Layer 1" xmlns="http://www.w3.org/2000/svg" xmlns:xlink="http://www.w3.org/1999/xlink" viewBox="0 0 510.24 510.24"><defs><style>.cls-1{fill:#1bfed7;}.cls-2{fill:#f90;}.cls-3{fill:#eaeaea;}.cls-4{fill:#d3d3d3;}.cls-5{fill:url(#linear-gradient);}.cls-6{fill:url(#linear-gradient-2);}.cls-7{fill:url(#linear-gradient-3);}.cls-8{fill:url(#linear-gradient-4);}.cls-9{fill:#fff;}</style><linearGradient id="linear-gradient" x1="234.08" y1="192.98" x2="291.56" y2="204.12" gradientUnits="userSpaceOnUse"><stop offset="0" stop-color="#bababa"/><stop offset="0.04" stop-color="#cbcbcb"/><stop offset="0.11" stop-color="#dbdbdb"/><stop offset="0.19" stop-color="#e7e7e7"/><stop offset="0.3" stop-color="#eee"/><stop offset="0.61" stop-color="#f0f0f0"/><stop offset="0.76" stop-color="#eee"/><stop offset="0.85" stop-color="#e6e6e6"/><stop offset="0.92" stop-color="#d8d8d8"/><stop offset="0.98" stop-color="#c5c5c5"/><stop offset="1" stop-color="#bababa"/></linearGradient><linearGradient id="linear-gradient-2" x1="235.19" y1="257.15" x2="295.31" y2="267.11" xlink:href="#linear-gradient"/><linearGradient id="linear-gradient-3" x1="320.09" y1="189.16" x2="317.49" y2="270.36" xlink:href="#linear-gradient"/><linearGradient id="linear-gradient-4" x1="330.78" y1="265.6" x2="267.1" y2="341.58" xlink:href="#linear-gradient"/></defs><circle class="cls-1" cx="255.12" cy="255.12" r="241.92"/><polyline class="cls-2" points="255.12 85.77 255.12 255.12 401.76 339.79 401.76 170.45 255.12 85.77"/><polyline class="cls-2" points="255.12 85.77 255.12 255.12 108.47 339.79 108.47 170.45 255.12 85.77"/><polygon class="cls-2" points="401.76 339.79 255.12 255.12 108.47 339.79 255.12 424.46 401.76 339.79"/><path class="cls-3" d="M215.75,189.36l-10.81-6.25a15,15,0,0,0-4.49-1.61l-.08,0c-.64-.37-13.51-2.63-14.21-2.76L197,185c.64.11,11.15,2,13.67,2.59l.56.19A15.07,15.07,0,0,1,215.75,189.36Z"/><polygon class="cls-4" points="257.2 135.79 268 142.04 260.88 174.38 250.08 168.14 257.2 135.79"/><polygon class="cls-4" points="245.34 191.84 256.14 198.09 247.31 238.2 236.51 231.95 245.34 191.84"/><path class="cls-3" d="M197,316.43c-4.58-.92-9.23-1.92-14-2.85l-25.49-5,10.81,6.25,25.48,5c4.74.93,9.39,1.93,14,2.85Z"/><polygon class="cls-4" points="292.4 142.7 303.21 148.95 295.94 181.96 285.14 175.71 292.4 142.7"/><path class="cls-5" d="M276.8,200.61l10.81,6.25c-10.16-5.87-25-7.5-31.47-8.77l-10.8-6.25C251.8,193.11,266.64,194.74,276.8,200.61Z"/><polygon class="cls-4" points="232.05 252.19 242.85 258.44 233.11 302.67 222.31 296.42 232.05 252.19"/><polygon class="cls-4" points="216.51 320.63 227.31 326.88 220.05 359.92 209.24 353.67 216.51 320.63"/><polygon class="cls-3" points="209.24 353.67 220.05 359.92 200.49 356.07 189.69 349.82 209.24 353.67"/><path class="cls-3" d="M232.11,323.86l10.81,6.25c-5.08-1-10.26-2.06-15.61-3.23l-10.8-6.25Q224.52,322.39,232.11,323.86Z"/><path class="cls-6" d="M270.75,263l10.81,6.24c-12.27-7.09-30.74-9.25-38.71-10.82l-10.8-6.25C240,253.76,258.49,255.92,270.75,263Z"/><polygon class="cls-4" points="251.79 327.26 262.59 333.51 255.25 366.82 244.45 360.58 251.79 327.26"/><polygon class="cls-3" points="244.45 360.58 255.25 366.82 235.68 362.99 224.87 356.74 244.45 360.58"/><path class="cls-7" d="M317.3,190.63l-10.8-6.25c12.94,7.48,20.7,18.25,18.66,34.7-2.17,17.75-11.57,26.8-24.22,30.51l10.8,6.25c12.66-3.71,22.05-12.76,24.23-30.51C338,208.88,330.25,198.11,317.3,190.63Z"/><path class="cls-8" d="M305.44,252.12l10.84,6.08c14.64,8.46,21.62,21.87,14.4,44.7-7.12,22.56-22.16,30.87-42.58,32a135.26,135.26,0,0,1-25.51-1.41l-10.8-6.25a135.26,135.26,0,0,0,25.51,1.41c20.42-1.15,35.45-9.46,42.58-32C327.1,273.82,320.08,260.58,305.44,252.12Z"/><path class="cls-9" d="M325.16,219.08c-2.17,17.75-11.57,26.8-24.22,30.51,17.66,8.28,26.87,22,18.94,47.06-7.13,22.56-22.16,30.87-42.58,32a135.26,135.26,0,0,1-25.51-1.41l-7.34,33.32-19.58-3.84,7.24-32.88q-7.61-1.49-15.6-3.23l-7.27,33-19.55-3.85L197,316.43c-4.58-.92-9.23-1.92-14-2.85l-25.49-5,9.18-23.24c.67.15,13.41,2.86,14.2,2.82a10.3,10.3,0,0,0,2.34.16c3.92-.22,5.73-3.28,6.51-5.38l19.9-90.43c.15-4.22-1.39-9.45-9.33-11,.31-.23-13.49-2.66-14.22-2.79l4.72-21.45,27,5.31c4,.9,8.22,1.63,12.48,2.38l7.27-33,19.57,3.85-7.12,32.35c5.24.92,10.53,1.85,15.67,2.86l7.08-32.14,19.57,3.84-7.26,33C309.91,183,328.17,194.86,325.16,219.08Zm-43.09,66c5.72-26-36.74-30.27-50-32.89l-9.74,44.23c7.23,1.41,22.67,5.32,36.12,4.56,11.27-.63,21.14-4.53,23.64-15.9m4.62-64.19c5.21-23.67-30.3-26.88-41.35-29L236.51,232c5.85,1.15,18.18,4.35,29.23,3.73,9.8-.55,18.6-4.11,20.95-14.79"/></svg>