<?xml version="1.0" encoding="UTF-8" standalone="no"?>
<!DOCTYPE svg PUBLIC "-//W3C//DTD SVG 1.1//EN" "http://www.w3.org/Graphics/SVG/1.1/DTD/svg11.dtd">
<svg width="100%" height="100%" viewBox="0 0 1957 1177" version="1.1" xmlns="http://www.w3.org/2000/svg" xmlns:xlink="http://www.w3.org/1999/xlink" xml:space="preserve" xmlns:serif="http://www.serif.com/" style="fill-rule:evenodd;clip-rule:evenodd;stroke-linecap:round;stroke-linejoin:round;stroke-miterlimit:1.5;">
    <g transform="matrix(1,0,0,1,-12725.7,-6185.42)">
        <g id="Staking-final-e" serif:id="Staking final e" transform="matrix(0.892771,0,0,0.536579,11502.4,6152.69)">
            <rect x="1370.25" y="60.998" width="2191.75" height="2191.75" style="fill:none;"/>
            <g transform="matrix(1.12011,0,0,1.86366,-739.455,-2098.49)">
                <g transform="matrix(0.96204,0,0,0.763957,-1370.76,-1266.06)">
                    <ellipse cx="4308.43" cy="4102.05" rx="107.911" ry="32.449" style="fill:none;stroke:rgb(134,171,188);stroke-width:18.42px;"/>
                </g>
                <g transform="matrix(1,0,0,1,-1532.96,-2150.49)">
                    <path d="M4206.76,4215.22C4206.76,4215.22 4201.19,4243.14 4313.98,4242.17M4414.3,4215.22C4414.3,4215.22 4419.87,4243.14 4307.08,4242.17" style="fill:none;stroke:rgb(113,128,150);stroke-width:16px;"/>
                </g>
                <g transform="matrix(1,0,0,1,-1536.41,-2198.61)">
                    <path d="M4206.76,4215.22C4206.76,4215.22 4201.19,4243.14 4313.98,4242.17M4414.3,4215.22C4414.3,4215.22 4419.87,4243.14 4307.08,4242.17" style="fill:none;stroke:rgb(161,174,192);stroke-width:16px;"/>
                </g>
                <g transform="matrix(1,0,0,1,-1529.51,-2051.43)">
                    <path d="M4206.76,4215.22C4206.76,4215.22 4201.19,4243.14 4313.98,4242.17M4414.3,4215.22C4414.3,4215.22 4419.87,4243.14 4307.08,4242.17" style="fill:none;stroke:rgb(113,128,150);stroke-width:16px;"/>
                </g>
                <g transform="matrix(1,0,0,1,-1532.96,-2100.39)">
                    <path d="M4206.76,4215.22C4206.76,4215.22 4201.19,4243.14 4313.98,4242.17M4414.3,4215.22C4414.3,4215.22 4419.87,4243.14 4307.08,4242.17" style="fill:none;stroke:rgb(113,128,150);stroke-width:16px;"/>
                </g>
                <g transform="matrix(1,0,0,1,-1536.41,-2249.76)">
                    <path d="M4206.76,4215.22C4206.76,4215.22 4201.19,4243.14 4313.98,4242.17M4414.3,4215.22C4414.3,4215.22 4419.87,4243.14 4307.08,4242.17" style="fill:none;stroke:rgb(181,202,222);stroke-width:16px;"/>
                </g>
                <g transform="matrix(1,0,0,1,-1536.41,-2304.05)">
                    <path d="M4206.76,4215.22C4206.76,4215.22 4201.19,4243.14 4313.98,4242.17M4414.3,4215.22C4414.3,4215.22 4419.87,4243.14 4307.08,4242.17" style="fill:none;stroke:rgb(181,202,222);stroke-width:16px;"/>
                </g>
            </g>
            <g transform="matrix(1.12011,0,0,1.86366,-739.455,-2098.49)">
                <g transform="matrix(0.96204,0,0,0.763957,-1104.13,-1401.21)">
                    <ellipse cx="4308.43" cy="4102.05" rx="107.911" ry="32.449" style="fill:none;stroke:rgb(134,171,188);stroke-width:18.42px;"/>
                </g>
                <g transform="matrix(1,0,0,1,-1266.88,-2286.54)">
                    <path d="M4206.76,4215.22C4206.76,4215.22 4201.19,4243.14 4313.98,4242.17M4414.3,4215.22C4414.3,4215.22 4419.87,4243.14 4307.08,4242.17" style="fill:none;stroke:rgb(161,174,192);stroke-width:16px;"/>
                </g>
                <g transform="matrix(1,0,0,1,-1266.88,-2142.46)">
                    <path d="M4206.76,4215.22C4206.76,4215.22 4201.19,4243.14 4313.98,4242.17M4414.3,4215.22C4414.3,4215.22 4419.87,4243.14 4307.08,4242.17" style="fill:none;stroke:rgb(113,128,150);stroke-width:16px;"/>
                </g>
                <g transform="matrix(1,0,0,1,-1266.88,-2337.41)">
                    <path d="M4206.76,4215.22C4206.76,4215.22 4201.19,4243.14 4313.98,4242.17M4414.3,4215.22C4414.3,4215.22 4419.87,4243.14 4307.08,4242.17" style="fill:none;stroke:rgb(161,174,192);stroke-width:16px;"/>
                </g>
                <g transform="matrix(1,0,0,1,-1266.88,-2190.06)">
                    <path d="M4206.76,4215.22C4206.76,4215.22 4201.19,4243.14 4313.98,4242.17M4414.3,4215.22C4414.3,4215.22 4419.87,4243.14 4307.08,4242.17" style="fill:none;stroke:rgb(113,128,150);stroke-width:16px;"/>
                </g>
                <g transform="matrix(1,0,0,1,-1263.43,-2044.53)">
                    <path d="M4206.76,4215.22C4206.76,4215.22 4201.19,4243.14 4313.98,4242.17M4414.3,4215.22C4414.3,4215.22 4419.87,4243.14 4307.08,4242.17" style="fill:none;stroke:rgb(113,128,150);stroke-width:16px;"/>
                </g>
                <g transform="matrix(1,0,0,1,-1266.88,-2237.28)">
                    <path d="M4206.76,4215.22C4206.76,4215.22 4201.19,4243.14 4313.98,4242.17M4414.3,4215.22C4414.3,4215.22 4419.87,4243.14 4307.08,4242.17" style="fill:none;stroke:rgb(113,128,150);stroke-width:16px;"/>
                </g>
                <g transform="matrix(1,0,0,1,-1266.88,-2091.59)">
                    <path d="M4206.76,4215.22C4206.76,4215.22 4201.19,4243.14 4313.98,4242.17M4414.3,4215.22C4414.3,4215.22 4419.87,4243.14 4307.08,4242.17" style="fill:none;stroke:rgb(113,128,150);stroke-width:16px;"/>
                </g>
                <g transform="matrix(1,0,0,1,-1266.88,-2387.26)">
                    <path d="M4206.76,4215.22C4206.76,4215.22 4201.19,4243.14 4313.98,4242.17M4414.3,4215.22C4414.3,4215.22 4419.87,4243.14 4307.08,4242.17" style="fill:none;stroke:rgb(181,202,222);stroke-width:16px;"/>
                </g>
                <g transform="matrix(1,0,0,1,-1270.34,-2439.05)">
                    <path d="M4206.76,4215.22C4206.76,4215.22 4201.19,4243.14 4313.98,4242.17M4414.3,4215.22C4414.3,4215.22 4419.87,4243.14 4307.08,4242.17" style="fill:none;stroke:rgb(181,202,222);stroke-width:16px;"/>
                </g>
            </g>
            <g transform="matrix(1.12011,0,0,1.86366,-679.805,-1898.47)">
                <g transform="matrix(1,0,0,1,-1844.79,-2136.28)">
                    <path d="M4208.1,3290.42C4349.84,3290.42 4464.92,3405.5 4464.92,3547.24C4464.92,3688.98 4349.84,3804.06 4208.1,3804.06C4066.36,3804.06 3951.28,3688.98 3951.28,3547.24C3951.28,3405.5 4066.36,3290.42 4208.1,3290.42ZM4208.1,3418.83C4278.97,3418.83 4336.51,3476.37 4336.51,3547.24C4336.51,3618.11 4278.97,3675.65 4208.1,3675.65C4137.23,3675.65 4079.69,3618.11 4079.69,3547.24C4079.69,3476.37 4137.23,3418.83 4208.1,3418.83Z" style="fill:rgb(26,32,44);stroke:rgb(113,128,150);stroke-width:24px;"/>
                </g>
                <g transform="matrix(1,0,0,1,-1844.79,-2136.28)">
                    <path d="M4055.2,3753.58C4099.44,3786.36 4153.04,3804.06 4208.1,3804.06C4333.56,3804.06 4440.66,3713.41 4461.39,3589.68L4334.74,3568.46C4324.38,3630.33 4270.83,3675.65 4208.1,3675.65C4180.57,3675.65 4153.77,3666.8 4131.65,3650.41L4055.2,3753.58Z" style="fill:rgb(190,195,203);stroke:rgb(113,128,150);stroke-width:24px;"/>
                </g>
                <g transform="matrix(-0.593194,0.805059,-0.805059,-0.593194,7715.26,127.389)">
                    <path d="M3974.38,3653.69C4016.1,3745.28 4107.46,3804.06 4208.1,3804.06C4349.94,3804.06 4464.92,3689.08 4464.92,3547.24L4336.51,3547.24C4336.51,3618.16 4279.02,3675.65 4208.1,3675.65C4157.78,3675.65 4112.1,3646.26 4091.24,3600.47L3974.38,3653.69Z" style="fill:rgb(74,85,104);stroke:rgb(113,128,150);stroke-width:16px;"/>
                </g>
            </g>
            <g transform="matrix(1.12011,0,0,1.86366,-1163.04,-2019.38)">
                <g transform="matrix(1,0,0,1,-2267.99,-2927)">
                    <path d="M5497.66,4900.27L5497.66,5097.65C5497.66,5097.65 5491.62,5125.8 5604.92,5124.62C5718.23,5123.44 5705.29,5097.65 5705.29,5097.65L5705.29,4900.27C5705.29,4900.27 5703.86,4878.87 5598.02,4875.48C5492.18,4872.09 5495.51,4908.34 5497.66,4900.27Z" style="fill:rgb(45,55,72);"/>
                    <path d="M5493.08,4903.72L5493.08,5097.16C5492.73,5099.21 5492.27,5107.78 5506.61,5115.59C5519.57,5122.65 5546.98,5129.8 5604.97,5129.2C5663.07,5128.59 5688.75,5121.37 5699.96,5114.61C5707.04,5110.33 5709.27,5105.88 5710,5102.72C5710.59,5100.1 5710.23,5098.03 5709.86,5096.81C5709.86,5082.93 5709.86,4900.27 5709.86,4900.27C5709.86,4900.17 5709.86,4900.07 5709.85,4899.96C5709.85,4899.96 5710.19,4894.63 5700.4,4888.62C5689.59,4881.98 5663.12,4872.99 5598.16,4870.91C5545.95,4869.23 5519.63,4877.19 5506.57,4884.75C5496.37,4890.66 5493.4,4896.78 5492.71,4899.21C5492.04,4901.55 5492.73,4903.11 5493.08,4903.72ZM5700.71,4900.97L5700.71,5097.65L5705.29,5102.22C5705.29,5102.22 5701.1,5099.48 5701.1,5099.48C5701.1,5099.48 5701.36,5103.08 5695.23,5106.78C5684.58,5113.21 5660.09,5119.48 5604.88,5120.05C5582.46,5120.28 5564.76,5119.36 5550.79,5117.73C5524.09,5114.6 5511.56,5109.08 5505.79,5104.04C5502.81,5101.43 5502.21,5098.53 5502.18,5098.35C5502.21,5098.12 5502.23,5097.89 5502.23,5097.65L5502.23,4900.62C5503.46,4898.9 5506.32,4895.46 5511.15,4892.67C5523.5,4885.52 5548.48,4878.47 5597.87,4880.05C5659.92,4882.04 5685.29,4890.08 5695.62,4896.42C5698.89,4898.43 5700.36,4900.43 5700.71,4900.97Z" style="fill:rgb(45,55,72);"/>
                </g>
                <g transform="matrix(0.96204,0,0,0.763957,-812.074,-1162.53)">
                    <ellipse cx="4308.43" cy="4102.05" rx="107.911" ry="32.449" style="fill:none;stroke:rgb(134,171,188);stroke-width:18.42px;"/>
                </g>
                <g transform="matrix(1,0,0,1,-977.724,-2147.16)">
                    <path d="M4206.76,4215.22C4206.76,4215.22 4201.19,4243.14 4313.98,4242.17M4414.3,4215.22C4414.3,4215.22 4419.87,4243.14 4307.08,4242.17" style="fill:none;stroke:rgb(161,174,192);stroke-width:16px;"/>
                </g>
                <g transform="matrix(1,0,0,1,-977.724,-2046.58)">
                    <path d="M4206.76,4215.22C4206.76,4215.22 4201.19,4243.14 4313.98,4242.17M4414.3,4215.22C4414.3,4215.22 4419.87,4243.14 4307.08,4242.17" style="fill:none;stroke:rgb(113,128,150);stroke-width:16px;"/>
                </g>
                <g transform="matrix(1,0,0,1,-977.724,-2097.09)">
                    <path d="M4206.76,4215.22C4206.76,4215.22 4201.19,4243.14 4313.98,4242.17M4414.3,4215.22C4414.3,4215.22 4419.87,4243.14 4307.08,4242.17" style="fill:none;stroke:rgb(113,128,150);stroke-width:16px;"/>
                </g>
                <g transform="matrix(1,0,0,1,-977.724,-2199.27)">
                    <path d="M4206.76,4215.22C4206.76,4215.22 4201.19,4243.14 4313.98,4242.17M4414.3,4215.22C4414.3,4215.22 4419.87,4243.14 4307.08,4242.17" style="fill:none;stroke:rgb(181,202,222);stroke-width:16px;"/>
                </g>
            </g>
            <g transform="matrix(1.12011,0,0,1.86366,-771.117,-2134.25)">
                <g transform="matrix(1,0,0,1,-2265.21,-2929.06)">
                    <path d="M4783.79,4996.47L4783.84,5126.78C4783.84,5126.78 4796.98,5158.06 4887.61,5153.75C4978.24,5149.44 4987.32,5132.09 4987.32,5132.09L4991.42,4996.47C4991.42,4996.47 4970.44,4968.18 4887.61,4971.68C4804.78,4975.18 4788.74,4983.72 4783.79,4996.47Z" style="fill:rgb(45,55,72);"/>
                    <path d="M4779.53,4994.82C4779.32,4995.34 4779.22,4995.9 4779.22,4996.47L4779.27,5126.78C4779.27,5127.39 4779.39,5127.99 4779.62,5128.55C4779.62,5128.55 4792.97,5162.83 4887.83,5158.32C4943.27,5155.69 4968.76,5148.12 4980.3,5142.6C4989.8,5138.06 4991.38,5134.21 4991.38,5134.21C4991.7,5133.6 4991.87,5132.92 4991.9,5132.23L4995.99,4996.61C4996.03,4995.58 4995.71,4994.57 4995.1,4993.74C4995.1,4993.74 4973.5,4963.48 4887.42,4967.11C4836.85,4969.25 4810.77,4973.36 4796.9,4979.01C4786.15,4983.38 4781.87,4988.79 4779.53,4994.82ZM4982.8,5130.27C4981.82,5131.11 4979.7,5132.75 4976.35,5134.35C4965.26,5139.65 4940.7,5146.65 4887.39,5149.19C4808.74,5152.93 4790.97,5129.83 4788.41,5125.65C4788.41,5125.65 4788.37,4997.38 4788.37,4997.38L4788.37,4997.38C4790.63,4992.3 4795.53,4988.4 4807.72,4985.01C4822.51,4980.9 4846.92,4977.98 4887.8,4976.25C4957.8,4973.29 4981.99,4993.29 4986.8,4998.15L4982.8,5130.27Z" style="fill:rgb(45,55,72);"/>
                </g>
                <g transform="matrix(0.96204,0,0,0.763957,-1525.94,-1066.32)">
                    <ellipse cx="4308.43" cy="4102.05" rx="107.911" ry="32.449" style="fill:none;stroke:rgb(134,171,188);stroke-width:18.42px;"/>
                </g>
                <g transform="matrix(1,0,0,1,-1691.59,-2062.46)">
                    <path d="M4206.76,4215.22C4206.76,4215.22 4201.19,4243.14 4313.98,4242.17M4414.3,4215.22C4414.3,4215.22 4419.87,4243.14 4307.08,4242.17" style="fill:none;stroke:rgb(161,174,192);stroke-width:16px;"/>
                </g>
                <g transform="matrix(1,0,0,1,-1691.59,-2017.45)">
                    <path d="M4206.76,4215.22C4206.76,4215.22 4201.19,4243.14 4313.98,4242.17M4414.3,4215.22C4414.3,4215.22 4419.87,4243.14 4307.08,4242.17" style="fill:none;stroke:rgb(113,128,150);stroke-width:16px;"/>
                </g>
                <g transform="matrix(1,0,0,1,-1691.59,-2108.74)">
                    <path d="M4206.76,4215.22C4206.76,4215.22 4201.19,4243.14 4313.98,4242.17M4414.3,4215.22C4414.3,4215.22 4419.87,4243.14 4307.08,4242.17" style="fill:none;stroke:rgb(181,202,222);stroke-width:16px;"/>
                </g>
            </g>
            <g transform="matrix(1.12011,0,0,1.86366,-221.444,-2070.26)">
                <g transform="matrix(1,0,0,1,-2731.13,-2944.15)">
                    <path d="M5404.89,4832.52L5407.04,5112.89C5407.04,5112.89 5425.75,5141.67 5515.28,5134.92C5522.25,5134.39 5528.74,5133.81 5534.8,5133.18C5606.48,5125.7 5615.97,5111.69 5615.97,5111.69L5612.52,4832.52C5612.52,4832.52 5582.82,4806.49 5501.78,4807.73C5420.74,4808.97 5404.89,4832.52 5404.89,4832.52Z" style="fill:rgb(45,55,72);"/>
                    <path d="M5401.09,4829.96C5400.58,4830.73 5400.31,4831.63 5400.31,4832.55L5402.47,5112.93C5402.48,5113.8 5402.73,5114.65 5403.21,5115.38C5403.21,5115.38 5422.44,5146.5 5515.62,5139.48C5522.64,5138.95 5529.18,5138.36 5535.27,5137.72C5579.2,5133.14 5600.24,5126.05 5610.07,5121.2C5618.03,5117.26 5619.76,5114.25 5619.76,5114.25C5620.28,5113.48 5620.55,5112.56 5620.54,5111.63L5617.09,4832.46C5617.07,4831.16 5616.51,4829.94 5615.53,4829.08C5615.53,4829.08 5585.08,4801.88 5501.71,4803.16C5417.34,4804.44 5401.09,4829.96 5401.09,4829.96ZM5611.37,5109.71C5610.36,5110.49 5608.56,5111.74 5606.01,5113C5596.61,5117.65 5576.4,5124.24 5534.32,5128.63C5528.31,5129.25 5521.86,5129.83 5514.93,5130.36C5438.51,5136.12 5415.7,5115.82 5411.6,5111.28C5411.6,5111.28 5409.47,4834.17 5409.47,4834.17L5409.47,4834.17C5413.44,4830.06 5433.72,4813.34 5501.85,4812.3C5570.27,4811.26 5601.08,4829.9 5607.97,4834.8L5611.37,5109.71Z" style="fill:rgb(45,55,72);"/>
                </g>
                <g transform="matrix(0.96204,0,0,0.763957,-1367.31,-1245.42)">
                    <ellipse cx="4308.43" cy="4102.05" rx="107.911" ry="32.449" style="fill:none;stroke:rgb(7,146,233);stroke-width:18.42px;"/>
                </g>
                <g transform="matrix(1,0,0,1,-1532.96,-2144.54)">
                    <path d="M4206.76,4215.22C4206.76,4215.22 4201.19,4243.14 4313.98,4242.17M4414.3,4215.22C4414.3,4215.22 4419.87,4243.14 4307.08,4242.17" style="fill:none;stroke:rgb(105,186,201);stroke-width:16px;"/>
                </g>
                <g transform="matrix(1,0,0,1,-1532.96,-2192.33)">
                    <path d="M4206.76,4215.22C4206.76,4215.22 4201.19,4243.14 4313.98,4242.17M4414.3,4215.22C4414.3,4215.22 4419.87,4243.14 4307.08,4242.17" style="fill:none;stroke:rgb(105,186,201);stroke-width:16px;"/>
                </g>
                <g transform="matrix(1,0,0,1,-1532.96,-2053.09)">
                    <path d="M4206.76,4215.22C4206.76,4215.22 4201.19,4243.14 4313.98,4242.17M4414.3,4215.22C4414.3,4215.22 4419.87,4243.14 4307.08,4242.17" style="fill:none;stroke:rgb(8,215,207);stroke-width:16px;"/>
                </g>
                <g transform="matrix(1,0,0,1,-1532.96,-2097.42)">
                    <path d="M4206.76,4215.22C4206.76,4215.22 4201.19,4243.14 4313.98,4242.17M4414.3,4215.22C4414.3,4215.22 4419.87,4243.14 4307.08,4242.17" style="fill:none;stroke:rgb(8,215,207);stroke-width:16px;"/>
                </g>
                <g transform="matrix(1,0,0,1,-1532.96,-2238.8)">
                    <path d="M4206.76,4215.22C4206.76,4215.22 4201.19,4243.14 4313.98,4242.17M4414.3,4215.22C4414.3,4215.22 4419.87,4243.14 4307.08,4242.17" style="fill:none;stroke:rgb(37,147,193);stroke-width:16px;"/>
                </g>
                <g transform="matrix(1,0,0,1,-1532.96,-2282.02)">
                    <path d="M4206.76,4215.22C4206.76,4215.22 4201.19,4243.14 4313.98,4242.17M4414.3,4215.22C4414.3,4215.22 4419.87,4243.14 4307.08,4242.17" style="fill:none;stroke:rgb(37,147,193);stroke-width:16px;"/>
                </g>
            </g>
            <g transform="matrix(1.12011,0,0,1.86366,-221.444,-2070.26)">
                <g transform="matrix(1,0,0,1,-2731.13,-2944.15)">
                    <path d="M5404.89,4832.52L5407.04,5112.89C5407.04,5112.89 5425.75,5141.67 5515.28,5134.92C5522.25,5134.39 5528.74,5133.81 5534.8,5133.18C5606.48,5125.7 5615.97,5111.69 5615.97,5111.69L5612.52,4832.52C5612.52,4832.52 5582.82,4806.49 5501.78,4807.73C5420.74,4808.97 5404.89,4832.52 5404.89,4832.52Z" style="fill:rgb(45,55,72);"/>
                    <path d="M5401.09,4829.96C5400.58,4830.73 5400.31,4831.63 5400.31,4832.55L5402.47,5112.93C5402.48,5113.8 5402.73,5114.65 5403.21,5115.38C5403.21,5115.38 5422.44,5146.5 5515.62,5139.48C5522.64,5138.95 5529.18,5138.36 5535.27,5137.72C5579.2,5133.14 5600.24,5126.05 5610.07,5121.2C5618.03,5117.26 5619.76,5114.25 5619.76,5114.25C5620.28,5113.48 5620.55,5112.56 5620.54,5111.63L5617.09,4832.46C5617.07,4831.16 5616.51,4829.94 5615.53,4829.08C5615.53,4829.08 5585.08,4801.88 5501.71,4803.16C5417.34,4804.44 5401.09,4829.96 5401.09,4829.96ZM5611.37,5109.71C5610.36,5110.49 5608.56,5111.74 5606.01,5113C5596.61,5117.65 5576.4,5124.24 5534.32,5128.63C5528.31,5129.25 5521.86,5129.83 5514.93,5130.36C5438.51,5136.12 5415.7,5115.82 5411.6,5111.28C5411.6,5111.28 5409.47,4834.17 5409.47,4834.17L5409.47,4834.17C5413.44,4830.06 5433.72,4813.34 5501.85,4812.3C5570.27,4811.26 5601.08,4829.9 5607.97,4834.8L5611.37,5109.71Z" style="fill:rgb(45,55,72);"/>
                </g>
                <g transform="matrix(0.96204,0,0,0.763957,-1367.31,-1245.42)">
                    <ellipse cx="4308.43" cy="4102.05" rx="107.911" ry="32.449" style="fill:none;stroke:rgb(134,171,188);stroke-width:18.42px;"/>
                </g>
                <g transform="matrix(1,0,0,1,-1532.96,-2144.54)">
                    <path d="M4206.76,4215.22C4206.76,4215.22 4201.19,4243.14 4313.98,4242.17M4414.3,4215.22C4414.3,4215.22 4419.87,4243.14 4307.08,4242.17" style="fill:none;stroke:rgb(161,174,192);stroke-width:16px;"/>
                </g>
                <g transform="matrix(1,0,0,1,-1532.96,-2192.33)">
                    <path d="M4206.76,4215.22C4206.76,4215.22 4201.19,4243.14 4313.98,4242.17M4414.3,4215.22C4414.3,4215.22 4419.87,4243.14 4307.08,4242.17" style="fill:none;stroke:rgb(161,174,192);stroke-width:16px;"/>
                </g>
                <g transform="matrix(1,0,0,1,-1532.96,-2053.09)">
                    <path d="M4206.76,4215.22C4206.76,4215.22 4201.19,4243.14 4313.98,4242.17M4414.3,4215.22C4414.3,4215.22 4419.87,4243.14 4307.08,4242.17" style="fill:none;stroke:rgb(113,128,150);stroke-width:16px;"/>
                </g>
                <g transform="matrix(1,0,0,1,-1532.96,-2097.42)">
                    <path d="M4206.76,4215.22C4206.76,4215.22 4201.19,4243.14 4313.98,4242.17M4414.3,4215.22C4414.3,4215.22 4419.87,4243.14 4307.08,4242.17" style="fill:none;stroke:rgb(113,128,150);stroke-width:16px;"/>
                </g>
                <g transform="matrix(1,0,0,1,-1532.96,-2238.8)">
                    <path d="M4206.76,4215.22C4206.76,4215.22 4201.19,4243.14 4313.98,4242.17M4414.3,4215.22C4414.3,4215.22 4419.87,4243.14 4307.08,4242.17" style="fill:none;stroke:rgb(181,202,222);stroke-width:16px;"/>
                </g>
                <g transform="matrix(1,0,0,1,-1532.96,-2282.02)">
                    <path d="M4206.76,4215.22C4206.76,4215.22 4201.19,4243.14 4313.98,4242.17M4414.3,4215.22C4414.3,4215.22 4419.87,4243.14 4307.08,4242.17" style="fill:none;stroke:rgb(181,202,222);stroke-width:16px;"/>
                </g>
            </g>
        </g>
    </g>
</svg>
