<?xml version="1.0" encoding="UTF-8" standalone="no"?>
<!DOCTYPE svg PUBLIC "-//W3C//DTD SVG 1.1//EN" "http://www.w3.org/Graphics/SVG/1.1/DTD/svg11.dtd">
<svg width="100%" height="100%" viewBox="0 0 1957 1177" version="1.1" xmlns="http://www.w3.org/2000/svg" xmlns:xlink="http://www.w3.org/1999/xlink" xml:space="preserve" xmlns:serif="http://www.serif.com/" style="fill-rule:evenodd;clip-rule:evenodd;stroke-linecap:round;stroke-linejoin:round;stroke-miterlimit:1.5;">
    <g transform="matrix(1,0,0,1,-12725.7,-8840.77)">
        <g id="ASAs-Finale" serif:id="ASAs Finale" transform="matrix(0.892771,0,0,0.536579,11502.4,8808.04)">
            <rect x="1370.25" y="60.998" width="2191.75" height="2191.75" style="fill:none;"/>
            <g transform="matrix(1.22289,0.598655,-0.285933,1.61692,-3010.99,-3337.41)">
                <path d="M4530.35,1196.89C4370.89,1165.92 4260.36,1098.78 4260.36,1021.02C4260.36,940.631 4378.49,871.59 4546.69,842.122L4540.59,852.177C4479.64,957.32 4483.07,1099.68 4545.94,1199.78L4530.35,1196.89Z" style="fill:none;stroke:rgb(181,202,222);stroke-width:15.57px;"/>
            </g>
            <g transform="matrix(0.558914,-1.88784,0.908733,0.744781,-1096.53,9312.72)">
                <path d="M4530.35,1196.89C4370.89,1165.92 4260.36,1098.78 4260.36,1021.02C4260.36,940.631 4378.49,871.59 4546.69,842.122L4540.59,852.177C4479.64,957.32 4483.07,1099.68 4545.94,1199.78L4530.35,1196.89Z" style="fill:none;stroke:rgb(181,202,222);stroke-width:15.64px;"/>
            </g>
            <g transform="matrix(0.635216,-1.81981,0.910287,0.879601,-1455.83,8848.21)">
                <path d="M4925.64,844.878C5085.83,875.726 5197.01,943.033 5197.01,1021.02C5197.01,1101.42 5078.84,1170.46 4910.62,1199.92C4958.68,1123.52 4971.15,1025.28 4950.04,937.806L4947.1,926.465C4938.75,896.38 4926.35,867.772 4909.98,842.008C4909.98,842.008 4925.64,844.878 4925.64,844.878Z" style="fill:none;stroke:rgb(181,202,222);stroke-width:15.4px;"/>
            </g>
            <g transform="matrix(1.20648,0.63181,-0.304128,1.6077,-2931.07,-3494.26)">
                <path d="M4925.64,844.878C5085.83,875.726 5197.01,943.033 5197.01,1021.02C5197.01,1101.42 5078.84,1170.46 4910.62,1199.92C4958.68,1123.52 4971.15,1025.28 4950.04,937.806L4947.1,926.465C4938.75,896.38 4926.35,867.772 4909.98,842.008C4909.98,842.008 4925.64,844.878 4925.64,844.878Z" style="fill:none;stroke:rgb(181,202,222);stroke-width:15.64px;"/>
            </g>
            <g transform="matrix(1.06107,-0.756696,0.454794,1.76543,-3083.91,2775.68)">
                <circle cx="4760.53" cy="1108.14" r="255.232" style="fill:rgb(113,128,150);stroke:rgb(113,128,150);stroke-width:23.29px;"/>
            </g>
            <g transform="matrix(1.08069,-0.77069,0.455099,1.76661,-3047.65,2861.79)">
                <path d="M4277.45,1393.14C4309.29,1442.72 4472.15,1446.83 4772.54,1212.61C4819.34,1176.12 4859.69,1140.96 4894.29,1107.41C5097.54,910.294 5106.52,779.929 5057.47,743.069" style="fill:none;stroke:rgb(181,202,222);stroke-width:15.38px;"/>
            </g>
            <g transform="matrix(0.626402,1.59342,-0.970741,1.05643,582.032,-7428.69)">
                <path d="M4277.45,1393.14C4299.01,1426.71 4380.63,1439.43 4524.35,1371.45C4592.88,1339.02 4675.54,1288.24 4772.54,1212.61C4819.34,1176.12 4859.69,1140.96 4894.29,1107.41C5097.54,910.294 5102.36,768.416 5050.53,735.872" style="fill:none;stroke:rgb(181,202,222);stroke-width:15.55px;"/>
            </g>
            <g transform="matrix(1.02952,-0.734199,0.441273,1.71294,-2799.14,2755.34)">
                <circle cx="4273.6" cy="858.107" r="57.966" style="fill:rgb(45,55,72);stroke:rgb(76,132,128);stroke-width:16px;"/>
            </g>
            <g transform="matrix(1.06814,-0.761738,0.457824,1.77719,-1934.74,2970.82)">
                <circle cx="4273.6" cy="858.107" r="57.966" style="fill:rgb(45,55,72);stroke:rgb(181,202,222);stroke-width:11.17px;"/>
            </g>
            <g transform="matrix(0.711795,-0.507612,0.305088,1.1843,-496.62,1745.35)">
                <circle cx="4273.6" cy="858.107" r="57.966" style="fill:rgb(45,55,72);stroke:rgb(134,171,188);stroke-width:13.23px;"/>
            </g>
            <g transform="matrix(1.02952,-0.734199,0.441273,1.71294,-2875.08,2663.89)">
                <circle cx="4905.46" cy="813.593" r="19.362" style="fill:rgb(45,55,72);stroke:rgb(76,132,128);stroke-width:16px;"/>
            </g>
            <g transform="matrix(1.63127,-1.16333,0.699193,2.71415,-5793.52,5070.17)">
                <circle cx="4905.46" cy="813.593" r="19.362" style="fill:rgb(45,55,72);stroke:rgb(76,132,128);stroke-width:6.54px;"/>
            </g>
            <g transform="matrix(1.82093,-1.29859,0.780484,3.02971,-7418.73,5580.22)">
                <circle cx="4905.46" cy="813.593" r="19.362" style="fill:rgb(45,55,72);stroke:rgb(134,171,188);stroke-width:6.55px;"/>
            </g>
            <g id="algorand-algo-logo.svg" transform="matrix(2.22247,-0.468239,0.281424,3.69779,2456.76,1103.96)">
                <g transform="matrix(1,0,0,1,-50,-50.177)">
                    <path id="algorand-algo-logo" d="M17.345,100.354L31.858,75.221L46.372,50.177L60.8,25.044L63.189,21.062L64.251,25.044L68.676,41.593L63.72,50.177L49.2,75.221L34.779,100.354L52.124,100.354L66.637,75.221L74.159,62.212L77.7,75.221L84.426,100.354L100,100.354L93.274,75.221L86.549,50.177L84.779,43.717L95.579,25.044L79.823,25.044L79.292,23.186L73.805,2.655L73.1,0L57.965,0L57.611,0.531L43.451,25.044L28.938,50.177L14.513,75.221L0,100.354L17.345,100.354Z" style="fill:white;fill-rule:nonzero;"/>
                </g>
            </g>
        </g>
    </g>
</svg>
