<?xml version="1.0" encoding="UTF-8" standalone="no"?>
<!DOCTYPE svg PUBLIC "-//W3C//DTD SVG 1.1//EN" "http://www.w3.org/Graphics/SVG/1.1/DTD/svg11.dtd">
<svg width="100%" height="100%" viewBox="0 0 1957 1177" version="1.1" xmlns="http://www.w3.org/2000/svg" xmlns:xlink="http://www.w3.org/1999/xlink" xml:space="preserve" xmlns:serif="http://www.serif.com/" style="fill-rule:evenodd;clip-rule:evenodd;stroke-linejoin:round;stroke-miterlimit:0.121951;">
    <g transform="matrix(1,0,0,1,-12725.7,-4787.21)">
        <g id="Limit-Finale" serif:id="Limit Finale" transform="matrix(0.892771,0,0,0.536579,11502.4,4754.48)">
            <rect x="1370.25" y="60.998" width="2191.75" height="2191.75" style="fill:none;"/>
            <g transform="matrix(1.12011,0,0,1.86366,-291.01,-999.146)">
                <g transform="matrix(1,0,0,1,-3763.35,-6231.63)">
                    <path d="M5453.93,7140.29L7001.57,7140.29" style="fill:none;stroke:rgb(190,195,203);stroke-width:6.71px;stroke-dasharray:22.64,17.52,0,0;"/>
                </g>
                <g transform="matrix(1,0,0,1,-3761.62,-6033.29)">
                    <path d="M5453.93,7140.29L7001.57,7140.29" style="fill:none;stroke:rgb(190,195,203);stroke-width:6.71px;stroke-dasharray:22.64,17.52,0,0;"/>
                </g>
                <g transform="matrix(1,0,0,1,-3761.62,-5921.99)">
                    <path d="M5453.93,7140.29L7001.57,7140.29" style="fill:none;stroke:rgb(190,195,203);stroke-width:6.71px;stroke-dasharray:22.64,17.52,0,0;"/>
                </g>
            </g>
            <g transform="matrix(1.12011,0,0,1.86366,-291.01,-999.146)">
                <g transform="matrix(1,0,0,1,-3763.35,-6231.63)">
                    <path d="M5453.93,7140.29L7001.57,7140.29" style="fill:none;stroke:rgb(190,195,203);stroke-width:6.71px;stroke-dasharray:22.64,17.52,0,0;"/>
                </g>
                <g transform="matrix(1,0,0,1,-3761.62,-6033.29)">
                    <path d="M5453.93,7140.29L7001.57,7140.29" style="fill:none;stroke:rgb(190,195,203);stroke-width:6.71px;stroke-dasharray:22.64,17.52,0,0;"/>
                </g>
                <g transform="matrix(1,0,0,1,-3761.62,-5921.99)">
                    <path d="M5453.93,7140.29L7001.57,7140.29" style="fill:none;stroke:rgb(190,195,203);stroke-width:6.71px;stroke-dasharray:22.64,17.52,0,0;"/>
                </g>
            </g>
            <g transform="matrix(1.12011,0,0,1.86366,-291.01,-999.146)">
                <g transform="matrix(1,0,0,1,-3763.35,-6231.63)">
                    <path d="M5453.93,7140.29L7001.57,7140.29" style="fill:none;stroke:rgb(190,195,203);stroke-width:6.71px;stroke-dasharray:22.64,17.52,0,0;"/>
                </g>
                <g transform="matrix(1,0,0,1,-3761.62,-6033.29)">
                    <path d="M5453.93,7140.29L7001.57,7140.29" style="fill:none;stroke:rgb(190,195,203);stroke-width:6.71px;stroke-dasharray:22.64,17.52,0,0;"/>
                </g>
                <g transform="matrix(1,0,0,1,-3761.62,-5921.99)">
                    <path d="M5453.93,7140.29L7001.57,7140.29" style="fill:none;stroke:rgb(190,195,203);stroke-width:6.71px;stroke-dasharray:22.64,17.52,0,0;"/>
                </g>
            </g>
            <g transform="matrix(1.12011,0,0,1.86366,-291.01,-999.146)">
                <g transform="matrix(1,0,0,1,-3763.35,-6231.63)">
                    <path d="M5453.93,7140.29L7001.57,7140.29" style="fill:none;stroke:rgb(190,195,203);stroke-width:6.71px;stroke-dasharray:22.64,17.52,0,0;"/>
                </g>
                <g transform="matrix(1,0,0,1,-3761.62,-6033.29)">
                    <path d="M5453.93,7140.29L7001.57,7140.29" style="fill:none;stroke:rgb(190,195,203);stroke-width:6.71px;stroke-dasharray:22.64,17.52,0,0;"/>
                </g>
                <g transform="matrix(1,0,0,1,-3761.62,-5921.99)">
                    <path d="M5453.93,7140.29L7001.57,7140.29" style="fill:none;stroke:rgb(190,195,203);stroke-width:6.71px;stroke-dasharray:22.64,17.52,0,0;"/>
                </g>
            </g>
            <g transform="matrix(1.12011,0,0,1.86366,-4506.37,-12612.8)">
                <path d="M5541.69,7382.36L5542.55,7562.32L5571.21,7562.19L5570.35,7382.22L5541.69,7382.36Z" style="fill:rgb(134,171,188);"/>
            </g>
            <g transform="matrix(1.12011,0,0,1.86366,-4506.37,-12612.8)">
                <path d="M5541.69,7382.36L5542.55,7562.32L5571.21,7562.19L5570.35,7382.22L5541.69,7382.36Z" style="fill:rgb(134,171,188);"/>
            </g>
            <g transform="matrix(1.12011,0,0,1.86366,-4506.37,-12612.8)">
                <path d="M5541.69,7382.36L5542.55,7562.32L5571.21,7562.19L5570.35,7382.22L5541.69,7382.36Z" style="fill:rgb(134,171,188);"/>
            </g>
            <g transform="matrix(1.12011,0,0,1.86366,-4506.37,-12612.8)">
                <path d="M5541.69,7382.36L5542.55,7562.32L5571.21,7562.19L5570.35,7382.22L5541.69,7382.36Z" style="fill:rgb(134,171,188);"/>
            </g>
            <g transform="matrix(1.12013,0.00713528,0.00428849,3.35263,-4538.45,-23749)">
                <path d="M5554.02,7382.3L5554.88,7562.27L5558.88,7562.25L5558.02,7382.28L5554.02,7382.3Z" style="fill:rgb(134,171,188);"/>
            </g>
            <g transform="matrix(1.12013,0.00713528,0.00428849,3.35263,-4538.45,-23749)">
                <path d="M5554.02,7382.3L5554.88,7562.27L5558.88,7562.25L5558.02,7382.28L5554.02,7382.3Z" style="fill:rgb(134,171,188);"/>
            </g>
            <g transform="matrix(1.12013,0.00713528,0.00428849,3.35263,-4538.45,-23749)">
                <path d="M5554.02,7382.3L5554.88,7562.27L5558.88,7562.25L5558.02,7382.28L5554.02,7382.3Z" style="fill:rgb(134,171,188);"/>
            </g>
            <g transform="matrix(1.12013,0.00713528,0.00428849,3.35263,-4538.45,-23749)">
                <path d="M5554.02,7382.3L5554.88,7562.27L5558.88,7562.25L5558.02,7382.28L5554.02,7382.3Z" style="fill:rgb(134,171,188);"/>
            </g>
            <g transform="matrix(1.1201,-0.00288107,-0.0017316,1.26245,-4374.53,-8263.43)">
                <path d="M5541.69,7382.36L5542.55,7562.32L5571.21,7562.19L5570.35,7382.22L5541.69,7382.36Z" style="fill:rgb(134,171,188);"/>
            </g>
            <g transform="matrix(1.1201,-0.00288107,-0.0017316,1.26245,-4374.53,-8263.43)">
                <path d="M5541.69,7382.36L5542.55,7562.32L5571.21,7562.19L5570.35,7382.22L5541.69,7382.36Z" style="fill:rgb(134,171,188);"/>
            </g>
            <g transform="matrix(1.1201,-0.00288107,-0.0017316,1.26245,-4374.53,-8263.43)">
                <path d="M5541.69,7382.36L5542.55,7562.32L5571.21,7562.19L5570.35,7382.22L5541.69,7382.36Z" style="fill:rgb(134,171,188);"/>
            </g>
            <g transform="matrix(1.1201,-0.00288107,-0.0017316,1.26245,-4374.53,-8263.43)">
                <path d="M5541.69,7382.36L5542.55,7562.32L5571.21,7562.19L5570.35,7382.22L5541.69,7382.36Z" style="fill:rgb(134,171,188);"/>
            </g>
            <g transform="matrix(1.12011,0.00159911,0.000961105,2.19736,-4394.67,-15254.3)">
                <path d="M5554.02,7382.3L5554.88,7562.27L5558.88,7562.25L5558.02,7382.28L5554.02,7382.3Z" style="fill:rgb(134,171,188);"/>
            </g>
            <g transform="matrix(1.12011,0.00159911,0.000961105,2.19736,-4394.67,-15254.3)">
                <path d="M5554.02,7382.3L5554.88,7562.27L5558.88,7562.25L5558.02,7382.28L5554.02,7382.3Z" style="fill:rgb(134,171,188);"/>
            </g>
            <g transform="matrix(1.12011,0.00159911,0.000961105,2.19736,-4394.67,-15254.3)">
                <path d="M5554.02,7382.3L5554.88,7562.27L5558.88,7562.25L5558.02,7382.28L5554.02,7382.3Z" style="fill:rgb(134,171,188);"/>
            </g>
            <g transform="matrix(1.12011,0.00159911,0.000961105,2.19736,-4394.67,-15254.3)">
                <path d="M5554.02,7382.3L5554.88,7562.27L5558.88,7562.25L5558.02,7382.28L5554.02,7382.3Z" style="fill:rgb(134,171,188);"/>
            </g>
            <g transform="matrix(1.12011,0.000154501,9.28589e-05,1.8959,-4332.09,-13222.1)">
                <path d="M5541.69,7382.36L5542.55,7562.32L5571.21,7562.19L5570.35,7382.22L5541.69,7382.36Z" style="fill:rgb(71,81,99);"/>
            </g>
            <g transform="matrix(1.12011,0.000154501,9.28589e-05,1.8959,-4332.09,-13222.1)">
                <path d="M5541.69,7382.36L5542.55,7562.32L5571.21,7562.19L5570.35,7382.22L5541.69,7382.36Z" style="fill:rgb(71,81,99);"/>
            </g>
            <g transform="matrix(1.12011,0.000154501,9.28589e-05,1.8959,-4332.09,-13222.1)">
                <path d="M5541.69,7382.36L5542.55,7562.32L5571.21,7562.19L5570.35,7382.22L5541.69,7382.36Z" style="fill:rgb(71,81,99);"/>
            </g>
            <g transform="matrix(1.12011,0.000154501,9.28589e-05,1.8959,-4332.09,-13222.1)">
                <path d="M5541.69,7382.36L5542.55,7562.32L5571.21,7562.19L5570.35,7382.22L5541.69,7382.36Z" style="fill:rgb(71,81,99);"/>
            </g>
            <g transform="matrix(1.12012,0.00591735,0.00355648,3.09848,-4357.96,-22205.3)">
                <path d="M5554.02,7382.3L5554.88,7562.27L5558.88,7562.25L5558.02,7382.28L5554.02,7382.3Z" style="fill:rgb(71,81,99);"/>
            </g>
            <g transform="matrix(1.12012,0.00591735,0.00355648,3.09848,-4357.96,-22205.3)">
                <path d="M5554.02,7382.3L5554.88,7562.27L5558.88,7562.25L5558.02,7382.28L5554.02,7382.3Z" style="fill:rgb(71,81,99);"/>
            </g>
            <g transform="matrix(1.12012,0.00591735,0.00355648,3.09848,-4357.96,-22205.3)">
                <path d="M5554.02,7382.3L5554.88,7562.27L5558.88,7562.25L5558.02,7382.28L5554.02,7382.3Z" style="fill:rgb(71,81,99);"/>
            </g>
            <g transform="matrix(1.12012,0.00591735,0.00355648,3.09848,-4357.96,-22205.3)">
                <path d="M5554.02,7382.3L5554.88,7562.27L5558.88,7562.25L5558.02,7382.28L5554.02,7382.3Z" style="fill:rgb(71,81,99);"/>
            </g>
            <g transform="matrix(1.1201,-0.00319929,-0.00192285,1.19604,-4258.01,-7721.15)">
                <path d="M5541.69,7382.36L5542.55,7562.32L5571.21,7562.19L5570.35,7382.22L5541.69,7382.36Z" style="fill:rgb(71,81,99);"/>
            </g>
            <g transform="matrix(1.1201,-0.00319929,-0.00192285,1.19604,-4258.01,-7721.15)">
                <path d="M5541.69,7382.36L5542.55,7562.32L5571.21,7562.19L5570.35,7382.22L5541.69,7382.36Z" style="fill:rgb(71,81,99);"/>
            </g>
            <g transform="matrix(1.1201,-0.00319929,-0.00192285,1.19604,-4258.01,-7721.15)">
                <path d="M5541.69,7382.36L5542.55,7562.32L5571.21,7562.19L5570.35,7382.22L5541.69,7382.36Z" style="fill:rgb(71,81,99);"/>
            </g>
            <g transform="matrix(1.1201,-0.00319929,-0.00192285,1.19604,-4258.01,-7721.15)">
                <path d="M5541.69,7382.36L5542.55,7562.32L5571.21,7562.19L5570.35,7382.22L5541.69,7382.36Z" style="fill:rgb(71,81,99);"/>
            </g>
            <g transform="matrix(1.12011,0.00109478,0.000657991,2.09212,-4277.41,-14455.7)">
                <path d="M5554.02,7382.3L5554.88,7562.27L5558.88,7562.25L5558.02,7382.28L5554.02,7382.3Z" style="fill:rgb(71,81,99);"/>
            </g>
            <g transform="matrix(1.12011,0.00109478,0.000657991,2.09212,-4277.41,-14455.7)">
                <path d="M5554.02,7382.3L5554.88,7562.27L5558.88,7562.25L5558.02,7382.28L5554.02,7382.3Z" style="fill:rgb(71,81,99);"/>
            </g>
            <g transform="matrix(1.12011,0.00109478,0.000657991,2.09212,-4277.41,-14455.7)">
                <path d="M5554.02,7382.3L5554.88,7562.27L5558.88,7562.25L5558.02,7382.28L5554.02,7382.3Z" style="fill:rgb(71,81,99);"/>
            </g>
            <g transform="matrix(1.12011,0.00109478,0.000657991,2.09212,-4277.41,-14455.7)">
                <path d="M5554.02,7382.3L5554.88,7562.27L5558.88,7562.25L5558.02,7382.28L5554.02,7382.3Z" style="fill:rgb(71,81,99);"/>
            </g>
            <g transform="matrix(1.12011,0.000450394,0.000270699,1.95765,-4215.9,-13319.8)">
                <path d="M5541.69,7382.36L5542.55,7562.32L5571.21,7562.19L5570.35,7382.22L5541.69,7382.36Z" style="fill:rgb(71,81,99);"/>
            </g>
            <g transform="matrix(1.12011,0.000450394,0.000270699,1.95765,-4215.9,-13319.8)">
                <path d="M5541.69,7382.36L5542.55,7562.32L5571.21,7562.19L5570.35,7382.22L5541.69,7382.36Z" style="fill:rgb(71,81,99);"/>
            </g>
            <g transform="matrix(1.12011,0.000450394,0.000270699,1.95765,-4215.9,-13319.8)">
                <path d="M5541.69,7382.36L5542.55,7562.32L5571.21,7562.19L5570.35,7382.22L5541.69,7382.36Z" style="fill:rgb(71,81,99);"/>
            </g>
            <g transform="matrix(1.12011,0.000450394,0.000270699,1.95765,-4215.9,-13319.8)">
                <path d="M5541.69,7382.36L5542.55,7562.32L5571.21,7562.19L5570.35,7382.22L5541.69,7382.36Z" style="fill:rgb(71,81,99);"/>
            </g>
            <g transform="matrix(1.12013,0.00654491,0.00393366,3.22943,-4243.31,-22836.3)">
                <path d="M5554.02,7382.3L5554.88,7562.27L5558.88,7562.25L5558.02,7382.28L5554.02,7382.3Z" style="fill:rgb(71,81,99);"/>
            </g>
            <g transform="matrix(1.12013,0.00654491,0.00393366,3.22943,-4243.31,-22836.3)">
                <path d="M5554.02,7382.3L5554.88,7562.27L5558.88,7562.25L5558.02,7382.28L5554.02,7382.3Z" style="fill:rgb(71,81,99);"/>
            </g>
            <g transform="matrix(1.12013,0.00654491,0.00393366,3.22943,-4243.31,-22836.3)">
                <path d="M5554.02,7382.3L5554.88,7562.27L5558.88,7562.25L5558.02,7382.28L5554.02,7382.3Z" style="fill:rgb(71,81,99);"/>
            </g>
            <g transform="matrix(1.12013,0.00654491,0.00393366,3.22943,-4243.31,-22836.3)">
                <path d="M5554.02,7382.3L5554.88,7562.27L5558.88,7562.25L5558.02,7382.28L5554.02,7382.3Z" style="fill:rgb(71,81,99);"/>
            </g>
            <g transform="matrix(1.1201,-0.00256012,-0.0015387,1.32942,-4143.41,-8370.89)">
                <path d="M5541.69,7382.36L5542.55,7562.32L5571.21,7562.19L5570.35,7382.22L5541.69,7382.36Z" style="fill:rgb(71,81,99);"/>
            </g>
            <g transform="matrix(1.1201,-0.00256012,-0.0015387,1.32942,-4143.41,-8370.89)">
                <path d="M5541.69,7382.36L5542.55,7562.32L5571.21,7562.19L5570.35,7382.22L5541.69,7382.36Z" style="fill:rgb(71,81,99);"/>
            </g>
            <g transform="matrix(1.1201,-0.00256012,-0.0015387,1.32942,-4143.41,-8370.89)">
                <path d="M5541.69,7382.36L5542.55,7562.32L5571.21,7562.19L5570.35,7382.22L5541.69,7382.36Z" style="fill:rgb(71,81,99);"/>
            </g>
            <g transform="matrix(1.1201,-0.00256012,-0.0015387,1.32942,-4143.41,-8370.89)">
                <path d="M5541.69,7382.36L5542.55,7562.32L5571.21,7562.19L5570.35,7382.22L5541.69,7382.36Z" style="fill:rgb(71,81,99);"/>
            </g>
            <g transform="matrix(1.12011,0.00234799,0.0014112,2.35363,-4165.47,-16027.8)">
                <path d="M5554.02,7382.3L5554.88,7562.27L5558.88,7562.25L5558.02,7382.28L5554.02,7382.3Z" style="fill:rgb(71,81,99);"/>
            </g>
            <g transform="matrix(1.12011,0.00234799,0.0014112,2.35363,-4165.47,-16027.8)">
                <path d="M5554.02,7382.3L5554.88,7562.27L5558.88,7562.25L5558.02,7382.28L5554.02,7382.3Z" style="fill:rgb(71,81,99);"/>
            </g>
            <g transform="matrix(1.12011,0.00234799,0.0014112,2.35363,-4165.47,-16027.8)">
                <path d="M5554.02,7382.3L5554.88,7562.27L5558.88,7562.25L5558.02,7382.28L5554.02,7382.3Z" style="fill:rgb(71,81,99);"/>
            </g>
            <g transform="matrix(1.12011,0.00234799,0.0014112,2.35363,-4165.47,-16027.8)">
                <path d="M5554.02,7382.3L5554.88,7562.27L5558.88,7562.25L5558.02,7382.28L5554.02,7382.3Z" style="fill:rgb(71,81,99);"/>
            </g>
            <g transform="matrix(1.12009,-0.00676799,-0.00406774,0.451333,-4067.91,-1905.82)">
                <path d="M5541.69,7382.36L5542.55,7562.32L5571.21,7562.19L5570.35,7382.22L5541.69,7382.36Z" style="fill:rgb(134,171,188);"/>
            </g>
            <g transform="matrix(1.12009,-0.00676799,-0.00406774,0.451333,-4067.91,-1905.82)">
                <path d="M5541.69,7382.36L5542.55,7562.32L5571.21,7562.19L5570.35,7382.22L5541.69,7382.36Z" style="fill:rgb(134,171,188);"/>
            </g>
            <g transform="matrix(1.12009,-0.00676799,-0.00406774,0.451333,-4067.91,-1905.82)">
                <path d="M5541.69,7382.36L5542.55,7562.32L5571.21,7562.19L5570.35,7382.22L5541.69,7382.36Z" style="fill:rgb(134,171,188);"/>
            </g>
            <g transform="matrix(1.12009,-0.00676799,-0.00406774,0.451333,-4067.91,-1905.82)">
                <path d="M5541.69,7382.36L5542.55,7562.32L5571.21,7562.19L5570.35,7382.22L5541.69,7382.36Z" style="fill:rgb(134,171,188);"/>
            </g>
            <g transform="matrix(1.12009,-0.00550233,-0.00330704,0.715449,-4073.6,-3879.54)">
                <path d="M5554.02,7382.3L5554.88,7562.27L5558.88,7562.25L5558.02,7382.28L5554.02,7382.3Z" style="fill:rgb(134,171,188);"/>
            </g>
            <g transform="matrix(1.12009,-0.00550233,-0.00330704,0.715449,-4073.6,-3879.54)">
                <path d="M5554.02,7382.3L5554.88,7562.27L5558.88,7562.25L5558.02,7382.28L5554.02,7382.3Z" style="fill:rgb(134,171,188);"/>
            </g>
            <g transform="matrix(1.12009,-0.00550233,-0.00330704,0.715449,-4073.6,-3879.54)">
                <path d="M5554.02,7382.3L5554.88,7562.27L5558.88,7562.25L5558.02,7382.28L5554.02,7382.3Z" style="fill:rgb(134,171,188);"/>
            </g>
            <g transform="matrix(1.12009,-0.00550233,-0.00330704,0.715449,-4073.6,-3879.54)">
                <path d="M5554.02,7382.3L5554.88,7562.27L5558.88,7562.25L5558.02,7382.28L5554.02,7382.3Z" style="fill:rgb(134,171,188);"/>
            </g>
            <g transform="matrix(1.1201,-0.00326279,-0.00196102,1.18279,-4026.66,-7439.54)">
                <path d="M5541.69,7382.36L5542.55,7562.32L5571.21,7562.19L5570.35,7382.22L5541.69,7382.36Z" style="fill:rgb(71,81,99);"/>
            </g>
            <g transform="matrix(1.1201,-0.00326279,-0.00196102,1.18279,-4026.66,-7439.54)">
                <path d="M5541.69,7382.36L5542.55,7562.32L5571.21,7562.19L5570.35,7382.22L5541.69,7382.36Z" style="fill:rgb(71,81,99);"/>
            </g>
            <g transform="matrix(1.1201,-0.00326279,-0.00196102,1.18279,-4026.66,-7439.54)">
                <path d="M5541.69,7382.36L5542.55,7562.32L5571.21,7562.19L5570.35,7382.22L5541.69,7382.36Z" style="fill:rgb(71,81,99);"/>
            </g>
            <g transform="matrix(1.1201,-0.00326279,-0.00196102,1.18279,-4026.66,-7439.54)">
                <path d="M5541.69,7382.36L5542.55,7562.32L5571.21,7562.19L5570.35,7382.22L5541.69,7382.36Z" style="fill:rgb(71,81,99);"/>
            </g>
            <g transform="matrix(1.12011,0.000424292,0.000255011,1.9522,-4043.19,-13177.3)">
                <path d="M5554.02,7382.3L5554.88,7562.27L5558.88,7562.25L5558.02,7382.28L5554.02,7382.3Z" style="fill:rgb(71,81,99);"/>
            </g>
            <g transform="matrix(1.12011,0.000424292,0.000255011,1.9522,-4043.19,-13177.3)">
                <path d="M5554.02,7382.3L5554.88,7562.27L5558.88,7562.25L5558.02,7382.28L5554.02,7382.3Z" style="fill:rgb(71,81,99);"/>
            </g>
            <g transform="matrix(1.12011,0.000424292,0.000255011,1.9522,-4043.19,-13177.3)">
                <path d="M5554.02,7382.3L5554.88,7562.27L5558.88,7562.25L5558.02,7382.28L5554.02,7382.3Z" style="fill:rgb(71,81,99);"/>
            </g>
            <g transform="matrix(1.12011,0.000424292,0.000255011,1.9522,-4043.19,-13177.3)">
                <path d="M5554.02,7382.3L5554.88,7562.27L5558.88,7562.25L5558.02,7382.28L5554.02,7382.3Z" style="fill:rgb(71,81,99);"/>
            </g>
            <g transform="matrix(1.1201,-0.00232677,-0.00139845,1.37812,-3913.1,-9102.89)">
                <path d="M5541.69,7382.36L5542.55,7562.32L5571.21,7562.19L5570.35,7382.22L5541.69,7382.36Z" style="fill:rgb(71,81,99);"/>
            </g>
            <g transform="matrix(1.1201,-0.00232677,-0.00139845,1.37812,-3913.1,-9102.89)">
                <path d="M5541.69,7382.36L5542.55,7562.32L5571.21,7562.19L5570.35,7382.22L5541.69,7382.36Z" style="fill:rgb(71,81,99);"/>
            </g>
            <g transform="matrix(1.1201,-0.00232677,-0.00139845,1.37812,-3913.1,-9102.89)">
                <path d="M5541.69,7382.36L5542.55,7562.32L5571.21,7562.19L5570.35,7382.22L5541.69,7382.36Z" style="fill:rgb(71,81,99);"/>
            </g>
            <g transform="matrix(1.1201,-0.00232677,-0.00139845,1.37812,-3913.1,-9102.89)">
                <path d="M5541.69,7382.36L5542.55,7562.32L5571.21,7562.19L5570.35,7382.22L5541.69,7382.36Z" style="fill:rgb(71,81,99);"/>
            </g>
            <g transform="matrix(1.12011,0.00185194,0.00111306,2.25012,-3931.93,-15640.5)">
                <path d="M5554.02,7382.3L5554.88,7562.27L5558.88,7562.25L5558.02,7382.28L5554.02,7382.3Z" style="fill:rgb(71,81,99);"/>
            </g>
            <g transform="matrix(1.12011,0.00185194,0.00111306,2.25012,-3931.93,-15640.5)">
                <path d="M5554.02,7382.3L5554.88,7562.27L5558.88,7562.25L5558.02,7382.28L5554.02,7382.3Z" style="fill:rgb(71,81,99);"/>
            </g>
            <g transform="matrix(1.12011,0.00185194,0.00111306,2.25012,-3931.93,-15640.5)">
                <path d="M5554.02,7382.3L5554.88,7562.27L5558.88,7562.25L5558.02,7382.28L5554.02,7382.3Z" style="fill:rgb(71,81,99);"/>
            </g>
            <g transform="matrix(1.12011,0.00185194,0.00111306,2.25012,-3931.93,-15640.5)">
                <path d="M5554.02,7382.3L5554.88,7562.27L5558.88,7562.25L5558.02,7382.28L5554.02,7382.3Z" style="fill:rgb(71,81,99);"/>
            </g>
            <g transform="matrix(1.1201,-0.00374087,-0.00224836,1.08302,-3965.06,-6808.17)">
                <path d="M5541.69,7382.36L5542.55,7562.32L5571.21,7562.19L5570.35,7382.22L5541.69,7382.36Z" style="fill:rgb(134,171,188);"/>
            </g>
            <g transform="matrix(1.1201,-0.00374087,-0.00224836,1.08302,-3965.06,-6808.17)">
                <path d="M5541.69,7382.36L5542.55,7562.32L5571.21,7562.19L5570.35,7382.22L5541.69,7382.36Z" style="fill:rgb(134,171,188);"/>
            </g>
            <g transform="matrix(1.1201,-0.00374087,-0.00224836,1.08302,-3965.06,-6808.17)">
                <path d="M5541.69,7382.36L5542.55,7562.32L5571.21,7562.19L5570.35,7382.22L5541.69,7382.36Z" style="fill:rgb(134,171,188);"/>
            </g>
            <g transform="matrix(1.1201,-0.00374087,-0.00224836,1.08302,-3965.06,-6808.17)">
                <path d="M5541.69,7382.36L5542.55,7562.32L5571.21,7562.19L5570.35,7382.22L5541.69,7382.36Z" style="fill:rgb(134,171,188);"/>
            </g>
            <g transform="matrix(1.12011,-0.000175731,-0.000105619,1.82699,-3981.03,-12352.7)">
                <path d="M5554.02,7382.3L5554.88,7562.27L5558.88,7562.25L5558.02,7382.28L5554.02,7382.3Z" style="fill:rgb(134,171,188);"/>
            </g>
            <g transform="matrix(1.12011,-0.000175731,-0.000105619,1.82699,-3981.03,-12352.7)">
                <path d="M5554.02,7382.3L5554.88,7562.27L5558.88,7562.25L5558.02,7382.28L5554.02,7382.3Z" style="fill:rgb(134,171,188);"/>
            </g>
            <g transform="matrix(1.12011,-0.000175731,-0.000105619,1.82699,-3981.03,-12352.7)">
                <path d="M5554.02,7382.3L5554.88,7562.27L5558.88,7562.25L5558.02,7382.28L5554.02,7382.3Z" style="fill:rgb(134,171,188);"/>
            </g>
            <g transform="matrix(1.12011,-0.000175731,-0.000105619,1.82699,-3981.03,-12352.7)">
                <path d="M5554.02,7382.3L5554.88,7562.27L5558.88,7562.25L5558.02,7382.28L5554.02,7382.3Z" style="fill:rgb(134,171,188);"/>
            </g>
            <g transform="matrix(1.12009,-0.00485217,-0.00291628,0.851123,-3843.9,-5135.42)">
                <path d="M5541.69,7382.36L5542.55,7562.32L5571.21,7562.19L5570.35,7382.22L5541.69,7382.36Z" style="fill:rgb(134,171,188);"/>
            </g>
            <g transform="matrix(1.12009,-0.00485217,-0.00291628,0.851123,-3843.9,-5135.42)">
                <path d="M5541.69,7382.36L5542.55,7562.32L5571.21,7562.19L5570.35,7382.22L5541.69,7382.36Z" style="fill:rgb(134,171,188);"/>
            </g>
            <g transform="matrix(1.12009,-0.00485217,-0.00291628,0.851123,-3843.9,-5135.42)">
                <path d="M5541.69,7382.36L5542.55,7562.32L5571.21,7562.19L5570.35,7382.22L5541.69,7382.36Z" style="fill:rgb(134,171,188);"/>
            </g>
            <g transform="matrix(1.12009,-0.00485217,-0.00291628,0.851123,-3843.9,-5135.42)">
                <path d="M5541.69,7382.36L5542.55,7562.32L5571.21,7562.19L5570.35,7382.22L5541.69,7382.36Z" style="fill:rgb(134,171,188);"/>
            </g>
            <g transform="matrix(1.1201,-0.00334826,-0.00201239,1.16495,-3850.62,-7470.78)">
                <path d="M5554.02,7382.3L5554.88,7562.27L5558.88,7562.25L5558.02,7382.28L5554.02,7382.3Z" style="fill:rgb(134,171,188);"/>
            </g>
            <g transform="matrix(1.1201,-0.00334826,-0.00201239,1.16495,-3850.62,-7470.78)">
                <path d="M5554.02,7382.3L5554.88,7562.27L5558.88,7562.25L5558.02,7382.28L5554.02,7382.3Z" style="fill:rgb(134,171,188);"/>
            </g>
            <g transform="matrix(1.1201,-0.00334826,-0.00201239,1.16495,-3850.62,-7470.78)">
                <path d="M5554.02,7382.3L5554.88,7562.27L5558.88,7562.25L5558.02,7382.28L5554.02,7382.3Z" style="fill:rgb(134,171,188);"/>
            </g>
            <g transform="matrix(1.1201,-0.00334826,-0.00201239,1.16495,-3850.62,-7470.78)">
                <path d="M5554.02,7382.3L5554.88,7562.27L5558.88,7562.25L5558.02,7382.28L5554.02,7382.3Z" style="fill:rgb(134,171,188);"/>
            </g>
            <g transform="matrix(1.12009,-0.00639974,-0.00384641,0.528179,-3778.49,-2790.28)">
                <path d="M5541.69,7382.36L5542.55,7562.32L5571.21,7562.19L5570.35,7382.22L5541.69,7382.36Z" style="fill:rgb(134,171,188);"/>
            </g>
            <g transform="matrix(1.12009,-0.00639974,-0.00384641,0.528179,-3778.49,-2790.28)">
                <path d="M5541.69,7382.36L5542.55,7562.32L5571.21,7562.19L5570.35,7382.22L5541.69,7382.36Z" style="fill:rgb(134,171,188);"/>
            </g>
            <g transform="matrix(1.12009,-0.00639974,-0.00384641,0.528179,-3778.49,-2790.28)">
                <path d="M5541.69,7382.36L5542.55,7562.32L5571.21,7562.19L5570.35,7382.22L5541.69,7382.36Z" style="fill:rgb(134,171,188);"/>
            </g>
            <g transform="matrix(1.12009,-0.00639974,-0.00384641,0.528179,-3778.49,-2790.28)">
                <path d="M5541.69,7382.36L5542.55,7562.32L5571.21,7562.19L5570.35,7382.22L5541.69,7382.36Z" style="fill:rgb(134,171,188);"/>
            </g>
            <g transform="matrix(1.12009,-0.00501905,-0.00301658,0.816299,-3784.7,-4947.98)">
                <path d="M5554.02,7382.3L5554.88,7562.27L5558.88,7562.25L5558.02,7382.28L5554.02,7382.3Z" style="fill:rgb(134,171,188);"/>
            </g>
            <g transform="matrix(1.12009,-0.00501905,-0.00301658,0.816299,-3784.7,-4947.98)">
                <path d="M5554.02,7382.3L5554.88,7562.27L5558.88,7562.25L5558.02,7382.28L5554.02,7382.3Z" style="fill:rgb(134,171,188);"/>
            </g>
            <g transform="matrix(1.12009,-0.00501905,-0.00301658,0.816299,-3784.7,-4947.98)">
                <path d="M5554.02,7382.3L5554.88,7562.27L5558.88,7562.25L5558.02,7382.28L5554.02,7382.3Z" style="fill:rgb(134,171,188);"/>
            </g>
            <g transform="matrix(1.12009,-0.00501905,-0.00301658,0.816299,-3784.7,-4947.98)">
                <path d="M5554.02,7382.3L5554.88,7562.27L5558.88,7562.25L5558.02,7382.28L5554.02,7382.3Z" style="fill:rgb(134,171,188);"/>
            </g>
            <g transform="matrix(1.12011,0.000326911,0.000196482,1.93188,-3750.48,-13429.3)">
                <path d="M5541.69,7382.36L5542.55,7562.32L5571.21,7562.19L5570.35,7382.22L5541.69,7382.36Z" style="fill:rgb(134,171,188);"/>
            </g>
            <g transform="matrix(1.12011,0.000326911,0.000196482,1.93188,-3750.48,-13429.3)">
                <path d="M5541.69,7382.36L5542.55,7562.32L5571.21,7562.19L5570.35,7382.22L5541.69,7382.36Z" style="fill:rgb(134,171,188);"/>
            </g>
            <g transform="matrix(1.12011,0.000326911,0.000196482,1.93188,-3750.48,-13429.3)">
                <path d="M5541.69,7382.36L5542.55,7562.32L5571.21,7562.19L5570.35,7382.22L5541.69,7382.36Z" style="fill:rgb(134,171,188);"/>
            </g>
            <g transform="matrix(1.12011,0.000326911,0.000196482,1.93188,-3750.48,-13429.3)">
                <path d="M5541.69,7382.36L5542.55,7562.32L5571.21,7562.19L5570.35,7382.22L5541.69,7382.36Z" style="fill:rgb(134,171,188);"/>
            </g>
            <g transform="matrix(1.12013,0.00604923,0.00363575,3.126,-3776.13,-22336.7)">
                <path d="M5554.02,7382.3L5554.88,7562.27L5558.88,7562.25L5558.02,7382.28L5554.02,7382.3Z" style="fill:rgb(134,171,188);"/>
            </g>
            <g transform="matrix(1.12013,0.00604923,0.00363575,3.126,-3776.13,-22336.7)">
                <path d="M5554.02,7382.3L5554.88,7562.27L5558.88,7562.25L5558.02,7382.28L5554.02,7382.3Z" style="fill:rgb(134,171,188);"/>
            </g>
            <g transform="matrix(1.12013,0.00604923,0.00363575,3.126,-3776.13,-22336.7)">
                <path d="M5554.02,7382.3L5554.88,7562.27L5558.88,7562.25L5558.02,7382.28L5554.02,7382.3Z" style="fill:rgb(134,171,188);"/>
            </g>
            <g transform="matrix(1.12013,0.00604923,0.00363575,3.126,-3776.13,-22336.7)">
                <path d="M5554.02,7382.3L5554.88,7562.27L5558.88,7562.25L5558.02,7382.28L5554.02,7382.3Z" style="fill:rgb(134,171,188);"/>
            </g>
            <g transform="matrix(1.1201,-0.00347473,-0.0020884,1.13856,-3675.79,-7620.44)">
                <path d="M5541.69,7382.36L5542.55,7562.32L5571.21,7562.19L5570.35,7382.22L5541.69,7382.36Z" style="fill:rgb(71,81,99);"/>
            </g>
            <g transform="matrix(1.1201,-0.00347473,-0.0020884,1.13856,-3675.79,-7620.44)">
                <path d="M5541.69,7382.36L5542.55,7562.32L5571.21,7562.19L5570.35,7382.22L5541.69,7382.36Z" style="fill:rgb(71,81,99);"/>
            </g>
            <g transform="matrix(1.1201,-0.00347473,-0.0020884,1.13856,-3675.79,-7620.44)">
                <path d="M5541.69,7382.36L5542.55,7562.32L5571.21,7562.19L5570.35,7382.22L5541.69,7382.36Z" style="fill:rgb(71,81,99);"/>
            </g>
            <g transform="matrix(1.1201,-0.00347473,-0.0020884,1.13856,-3675.79,-7620.44)">
                <path d="M5541.69,7382.36L5542.55,7562.32L5571.21,7562.19L5570.35,7382.22L5541.69,7382.36Z" style="fill:rgb(71,81,99);"/>
            </g>
            <g transform="matrix(1.12011,0.000873167,0.000524796,2.04587,-3695.31,-14396.1)">
                <path d="M5554.02,7382.3L5554.88,7562.27L5558.88,7562.25L5558.02,7382.28L5554.02,7382.3Z" style="fill:rgb(71,81,99);"/>
            </g>
            <g transform="matrix(1.12011,0.000873167,0.000524796,2.04587,-3695.31,-14396.1)">
                <path d="M5554.02,7382.3L5554.88,7562.27L5558.88,7562.25L5558.02,7382.28L5554.02,7382.3Z" style="fill:rgb(71,81,99);"/>
            </g>
            <g transform="matrix(1.12011,0.000873167,0.000524796,2.04587,-3695.31,-14396.1)">
                <path d="M5554.02,7382.3L5554.88,7562.27L5558.88,7562.25L5558.02,7382.28L5554.02,7382.3Z" style="fill:rgb(71,81,99);"/>
            </g>
            <g transform="matrix(1.12011,0.000873167,0.000524796,2.04587,-3695.31,-14396.1)">
                <path d="M5554.02,7382.3L5554.88,7562.27L5558.88,7562.25L5558.02,7382.28L5554.02,7382.3Z" style="fill:rgb(71,81,99);"/>
            </g>
            <g transform="matrix(1.12011,-0.000271059,-0.000162914,1.8071,-3631.32,-12368.7)">
                <path d="M5541.69,7382.36L5542.55,7562.32L5571.21,7562.19L5570.35,7382.22L5541.69,7382.36Z" style="fill:rgb(71,81,99);"/>
            </g>
            <g transform="matrix(1.12011,-0.000271059,-0.000162914,1.8071,-3631.32,-12368.7)">
                <path d="M5541.69,7382.36L5542.55,7562.32L5571.21,7562.19L5570.35,7382.22L5541.69,7382.36Z" style="fill:rgb(71,81,99);"/>
            </g>
            <g transform="matrix(1.12011,-0.000271059,-0.000162914,1.8071,-3631.32,-12368.7)">
                <path d="M5541.69,7382.36L5542.55,7562.32L5571.21,7562.19L5570.35,7382.22L5541.69,7382.36Z" style="fill:rgb(71,81,99);"/>
            </g>
            <g transform="matrix(1.12011,-0.000271059,-0.000162914,1.8071,-3631.32,-12368.7)">
                <path d="M5541.69,7382.36L5542.55,7562.32L5571.21,7562.19L5570.35,7382.22L5541.69,7382.36Z" style="fill:rgb(71,81,99);"/>
            </g>
            <g transform="matrix(1.12013,0.0067296,0.00404467,3.26798,-3662.8,-23296.4)">
                <path d="M5554.02,7382.3L5554.88,7562.27L5558.88,7562.25L5558.02,7382.28L5554.02,7382.3Z" style="fill:rgb(71,81,99);"/>
            </g>
            <g transform="matrix(1.12013,0.0067296,0.00404467,3.26798,-3662.8,-23296.4)">
                <path d="M5554.02,7382.3L5554.88,7562.27L5558.88,7562.25L5558.02,7382.28L5554.02,7382.3Z" style="fill:rgb(71,81,99);"/>
            </g>
            <g transform="matrix(1.12013,0.0067296,0.00404467,3.26798,-3662.8,-23296.4)">
                <path d="M5554.02,7382.3L5554.88,7562.27L5558.88,7562.25L5558.02,7382.28L5554.02,7382.3Z" style="fill:rgb(71,81,99);"/>
            </g>
            <g transform="matrix(1.12013,0.0067296,0.00404467,3.26798,-3662.8,-23296.4)">
                <path d="M5554.02,7382.3L5554.88,7562.27L5558.88,7562.25L5558.02,7382.28L5554.02,7382.3Z" style="fill:rgb(71,81,99);"/>
            </g>
            <g transform="matrix(1.1201,-0.00281938,-0.00169452,1.27532,-3561.15,-8201.67)">
                <path d="M5541.69,7382.36L5542.55,7562.32L5571.21,7562.19L5570.35,7382.22L5541.69,7382.36Z" style="fill:rgb(71,81,99);"/>
            </g>
            <g transform="matrix(1.1201,-0.00281938,-0.00169452,1.27532,-3561.15,-8201.67)">
                <path d="M5541.69,7382.36L5542.55,7562.32L5571.21,7562.19L5570.35,7382.22L5541.69,7382.36Z" style="fill:rgb(71,81,99);"/>
            </g>
            <g transform="matrix(1.1201,-0.00281938,-0.00169452,1.27532,-3561.15,-8201.67)">
                <path d="M5541.69,7382.36L5542.55,7562.32L5571.21,7562.19L5570.35,7382.22L5541.69,7382.36Z" style="fill:rgb(71,81,99);"/>
            </g>
            <g transform="matrix(1.1201,-0.00281938,-0.00169452,1.27532,-3561.15,-8201.67)">
                <path d="M5541.69,7382.36L5542.55,7562.32L5571.21,7562.19L5570.35,7382.22L5541.69,7382.36Z" style="fill:rgb(71,81,99);"/>
            </g>
            <g transform="matrix(1.12011,0.00158078,0.000950089,2.19353,-3580.87,-15045.2)">
                <path d="M5554.02,7382.3L5554.88,7562.27L5558.88,7562.25L5558.02,7382.28L5554.02,7382.3Z" style="fill:rgb(71,81,99);"/>
            </g>
            <g transform="matrix(1.12011,0.00158078,0.000950089,2.19353,-3580.87,-15045.2)">
                <path d="M5554.02,7382.3L5554.88,7562.27L5558.88,7562.25L5558.02,7382.28L5554.02,7382.3Z" style="fill:rgb(71,81,99);"/>
            </g>
            <g transform="matrix(1.12011,0.00158078,0.000950089,2.19353,-3580.87,-15045.2)">
                <path d="M5554.02,7382.3L5554.88,7562.27L5558.88,7562.25L5558.02,7382.28L5554.02,7382.3Z" style="fill:rgb(71,81,99);"/>
            </g>
            <g transform="matrix(1.12011,0.00158078,0.000950089,2.19353,-3580.87,-15045.2)">
                <path d="M5554.02,7382.3L5554.88,7562.27L5558.88,7562.25L5558.02,7382.28L5554.02,7382.3Z" style="fill:rgb(71,81,99);"/>
            </g>
            <g transform="matrix(1.12011,0.00055574,0.000334014,1.97963,-3517.69,-13305.1)">
                <path d="M5541.69,7382.36L5542.55,7562.32L5571.21,7562.19L5570.35,7382.22L5541.69,7382.36Z" style="fill:rgb(134,171,188);"/>
            </g>
            <g transform="matrix(1.12011,0.00055574,0.000334014,1.97963,-3517.69,-13305.1)">
                <path d="M5541.69,7382.36L5542.55,7562.32L5571.21,7562.19L5570.35,7382.22L5541.69,7382.36Z" style="fill:rgb(134,171,188);"/>
            </g>
            <g transform="matrix(1.12011,0.00055574,0.000334014,1.97963,-3517.69,-13305.1)">
                <path d="M5541.69,7382.36L5542.55,7562.32L5571.21,7562.19L5570.35,7382.22L5541.69,7382.36Z" style="fill:rgb(134,171,188);"/>
            </g>
            <g transform="matrix(1.12011,0.00055574,0.000334014,1.97963,-3517.69,-13305.1)">
                <path d="M5541.69,7382.36L5542.55,7562.32L5571.21,7562.19L5570.35,7382.22L5541.69,7382.36Z" style="fill:rgb(134,171,188);"/>
            </g>
            <g transform="matrix(1.12012,0.00532934,0.00320307,2.97577,-3539.17,-20765.4)">
                <path d="M5556.02,7382.29L5556.88,7562.26" style="fill:none;"/>
                <path d="M5554.02,7382.3L5554.88,7562.27L5558.88,7562.25L5558.02,7382.28L5554.02,7382.3Z" style="fill:rgb(134,171,188);"/>
            </g>
            <g transform="matrix(1.12012,0.00532934,0.00320307,2.97577,-3539.17,-20765.4)">
                <path d="M5556.02,7382.29L5556.88,7562.26" style="fill:none;"/>
                <path d="M5554.02,7382.3L5554.88,7562.27L5558.88,7562.25L5558.02,7382.28L5554.02,7382.3Z" style="fill:rgb(134,171,188);"/>
            </g>
            <g transform="matrix(1.12012,0.00532934,0.00320307,2.97577,-3539.17,-20765.4)">
                <path d="M5556.02,7382.29L5556.88,7562.26" style="fill:none;"/>
                <path d="M5554.02,7382.3L5554.88,7562.27L5558.88,7562.25L5558.02,7382.28L5554.02,7382.3Z" style="fill:rgb(134,171,188);"/>
            </g>
            <g transform="matrix(1.12012,0.00532934,0.00320307,2.97577,-3539.17,-20765.4)">
                <path d="M5556.02,7382.29L5556.88,7562.26" style="fill:none;"/>
                <path d="M5554.02,7382.3L5554.88,7562.27L5558.88,7562.25L5558.02,7382.28L5554.02,7382.3Z" style="fill:rgb(134,171,188);"/>
            </g>
            <g transform="matrix(1.1201,-0.00226785,-0.00136304,1.39041,-3445.94,-9011.7)">
                <path d="M5541.69,7382.36L5542.55,7562.32L5571.21,7562.19L5570.35,7382.22L5541.69,7382.36Z" style="fill:rgb(134,171,188);"/>
            </g>
            <g transform="matrix(1.1201,-0.00226785,-0.00136304,1.39041,-3445.94,-9011.7)">
                <path d="M5541.69,7382.36L5542.55,7562.32L5571.21,7562.19L5570.35,7382.22L5541.69,7382.36Z" style="fill:rgb(134,171,188);"/>
            </g>
            <g transform="matrix(1.1201,-0.00226785,-0.00136304,1.39041,-3445.94,-9011.7)">
                <path d="M5541.69,7382.36L5542.55,7562.32L5571.21,7562.19L5570.35,7382.22L5541.69,7382.36Z" style="fill:rgb(134,171,188);"/>
            </g>
            <g transform="matrix(1.1201,-0.00226785,-0.00136304,1.39041,-3445.94,-9011.7)">
                <path d="M5541.69,7382.36L5542.55,7562.32L5571.21,7562.19L5570.35,7382.22L5541.69,7382.36Z" style="fill:rgb(134,171,188);"/>
            </g>
            <g transform="matrix(1.12011,0.00234232,0.00140779,2.35245,-3466.57,-16172.1)">
                <path d="M5554.02,7382.3L5554.88,7562.27L5558.88,7562.25L5558.02,7382.28L5554.02,7382.3Z" style="fill:rgb(134,171,188);"/>
            </g>
            <g transform="matrix(1.12011,0.00234232,0.00140779,2.35245,-3466.57,-16172.1)">
                <path d="M5554.02,7382.3L5554.88,7562.27L5558.88,7562.25L5558.02,7382.28L5554.02,7382.3Z" style="fill:rgb(134,171,188);"/>
            </g>
            <g transform="matrix(1.12011,0.00234232,0.00140779,2.35245,-3466.57,-16172.1)">
                <path d="M5554.02,7382.3L5554.88,7562.27L5558.88,7562.25L5558.02,7382.28L5554.02,7382.3Z" style="fill:rgb(134,171,188);"/>
            </g>
            <g transform="matrix(1.12011,0.00234232,0.00140779,2.35245,-3466.57,-16172.1)">
                <path d="M5554.02,7382.3L5554.88,7562.27L5558.88,7562.25L5558.02,7382.28L5554.02,7382.3Z" style="fill:rgb(134,171,188);"/>
            </g>
            <g transform="matrix(1.12009,-0.00724306,-0.00435326,0.352198,-3367.92,-1132.84)">
                <path d="M5541.69,7382.36L5542.55,7562.32L5571.21,7562.19L5570.35,7382.22L5541.69,7382.36Z" style="fill:rgb(71,81,99);"/>
            </g>
            <g transform="matrix(1.12009,-0.00724306,-0.00435326,0.352198,-3367.92,-1132.84)">
                <path d="M5541.69,7382.36L5542.55,7562.32L5571.21,7562.19L5570.35,7382.22L5541.69,7382.36Z" style="fill:rgb(71,81,99);"/>
            </g>
            <g transform="matrix(1.12009,-0.00724306,-0.00435326,0.352198,-3367.92,-1132.84)">
                <path d="M5541.69,7382.36L5542.55,7562.32L5571.21,7562.19L5570.35,7382.22L5541.69,7382.36Z" style="fill:rgb(71,81,99);"/>
            </g>
            <g transform="matrix(1.12009,-0.00724306,-0.00435326,0.352198,-3367.92,-1132.84)">
                <path d="M5541.69,7382.36L5542.55,7562.32L5571.21,7562.19L5570.35,7382.22L5541.69,7382.36Z" style="fill:rgb(71,81,99);"/>
            </g>
            <g transform="matrix(1.12009,-0.0053895,-0.00323923,0.738993,-3376.29,-4039.39)">
                <path d="M5554.02,7382.3L5554.88,7562.27L5558.88,7562.25L5558.02,7382.28L5554.02,7382.3Z" style="fill:rgb(71,81,99);"/>
            </g>
            <g transform="matrix(1.12009,-0.0053895,-0.00323923,0.738993,-3376.29,-4039.39)">
                <path d="M5554.02,7382.3L5554.88,7562.27L5558.88,7562.25L5558.02,7382.28L5554.02,7382.3Z" style="fill:rgb(71,81,99);"/>
            </g>
            <g transform="matrix(1.12009,-0.0053895,-0.00323923,0.738993,-3376.29,-4039.39)">
                <path d="M5554.02,7382.3L5554.88,7562.27L5558.88,7562.25L5558.02,7382.28L5554.02,7382.3Z" style="fill:rgb(71,81,99);"/>
            </g>
            <g transform="matrix(1.12009,-0.0053895,-0.00323923,0.738993,-3376.29,-4039.39)">
                <path d="M5554.02,7382.3L5554.88,7562.27L5558.88,7562.25L5558.02,7382.28L5554.02,7382.3Z" style="fill:rgb(71,81,99);"/>
            </g>
            <g transform="matrix(1.1201,-0.00328066,-0.00197176,1.17906,-3326.23,-7602.56)">
                <path d="M5541.69,7382.36L5542.55,7562.32L5571.21,7562.19L5570.35,7382.22L5541.69,7382.36Z" style="fill:rgb(71,81,99);"/>
            </g>
            <g transform="matrix(1.1201,-0.00328066,-0.00197176,1.17906,-3326.23,-7602.56)">
                <path d="M5541.69,7382.36L5542.55,7562.32L5571.21,7562.19L5570.35,7382.22L5541.69,7382.36Z" style="fill:rgb(71,81,99);"/>
            </g>
            <g transform="matrix(1.1201,-0.00328066,-0.00197176,1.17906,-3326.23,-7602.56)">
                <path d="M5541.69,7382.36L5542.55,7562.32L5571.21,7562.19L5570.35,7382.22L5541.69,7382.36Z" style="fill:rgb(71,81,99);"/>
            </g>
            <g transform="matrix(1.1201,-0.00328066,-0.00197176,1.17906,-3326.23,-7602.56)">
                <path d="M5541.69,7382.36L5542.55,7562.32L5571.21,7562.19L5570.35,7382.22L5541.69,7382.36Z" style="fill:rgb(71,81,99);"/>
            </g>
            <g transform="matrix(1.1201,-0.00179955,-0.00108158,1.48813,-3332.91,-9923.83)">
                <path d="M5554.02,7382.3L5554.88,7562.27L5558.88,7562.25L5558.02,7382.28L5554.02,7382.3Z" style="fill:rgb(71,81,99);"/>
            </g>
            <g transform="matrix(1.1201,-0.00179955,-0.00108158,1.48813,-3332.91,-9923.83)">
                <path d="M5554.02,7382.3L5554.88,7562.27L5558.88,7562.25L5558.02,7382.28L5554.02,7382.3Z" style="fill:rgb(71,81,99);"/>
            </g>
            <g transform="matrix(1.1201,-0.00179955,-0.00108158,1.48813,-3332.91,-9923.83)">
                <path d="M5554.02,7382.3L5554.88,7562.27L5558.88,7562.25L5558.02,7382.28L5554.02,7382.3Z" style="fill:rgb(71,81,99);"/>
            </g>
            <g transform="matrix(1.1201,-0.00179955,-0.00108158,1.48813,-3332.91,-9923.83)">
                <path d="M5554.02,7382.3L5554.88,7562.27L5558.88,7562.25L5558.02,7382.28L5554.02,7382.3Z" style="fill:rgb(71,81,99);"/>
            </g>
            <g transform="matrix(1.1201,-0.00274327,-0.00164878,1.2912,-3270.26,-8592.28)">
                <path d="M5541.69,7382.36L5542.55,7562.32L5571.21,7562.19L5570.35,7382.22L5541.69,7382.36Z" style="fill:rgb(134,171,188);"/>
            </g>
            <g transform="matrix(1.1201,-0.00274327,-0.00164878,1.2912,-3270.26,-8592.28)">
                <path d="M5541.69,7382.36L5542.55,7562.32L5571.21,7562.19L5570.35,7382.22L5541.69,7382.36Z" style="fill:rgb(134,171,188);"/>
            </g>
            <g transform="matrix(1.1201,-0.00274327,-0.00164878,1.2912,-3270.26,-8592.28)">
                <path d="M5541.69,7382.36L5542.55,7562.32L5571.21,7562.19L5570.35,7382.22L5541.69,7382.36Z" style="fill:rgb(134,171,188);"/>
            </g>
            <g transform="matrix(1.1201,-0.00274327,-0.00164878,1.2912,-3270.26,-8592.28)">
                <path d="M5541.69,7382.36L5542.55,7562.32L5571.21,7562.19L5570.35,7382.22L5541.69,7382.36Z" style="fill:rgb(134,171,188);"/>
            </g>
            <g transform="matrix(1.12011,0.00167716,0.00100802,2.21365,-3290.13,-15494.1)">
                <path d="M5554.02,7382.3L5554.88,7562.27L5558.88,7562.25L5558.02,7382.28L5554.02,7382.3Z" style="fill:rgb(134,171,188);"/>
            </g>
            <g transform="matrix(1.12011,0.00167716,0.00100802,2.21365,-3290.13,-15494.1)">
                <path d="M5554.02,7382.3L5554.88,7562.27L5558.88,7562.25L5558.02,7382.28L5554.02,7382.3Z" style="fill:rgb(134,171,188);"/>
            </g>
            <g transform="matrix(1.12011,0.00167716,0.00100802,2.21365,-3290.13,-15494.1)">
                <path d="M5554.02,7382.3L5554.88,7562.27L5558.88,7562.25L5558.02,7382.28L5554.02,7382.3Z" style="fill:rgb(134,171,188);"/>
            </g>
            <g transform="matrix(1.12011,0.00167716,0.00100802,2.21365,-3290.13,-15494.1)">
                <path d="M5554.02,7382.3L5554.88,7562.27L5558.88,7562.25L5558.02,7382.28L5554.02,7382.3Z" style="fill:rgb(134,171,188);"/>
            </g>
            <g transform="matrix(1.12011,-0.000436821,-0.000262541,1.77251,-3222.29,-12361)">
                <path d="M5541.69,7382.36L5542.55,7562.32L5571.21,7562.19L5570.35,7382.22L5541.69,7382.36Z" style="fill:rgb(134,171,188);"/>
            </g>
            <g transform="matrix(1.12011,-0.000436821,-0.000262541,1.77251,-3222.29,-12361)">
                <path d="M5541.69,7382.36L5542.55,7562.32L5571.21,7562.19L5570.35,7382.22L5541.69,7382.36Z" style="fill:rgb(134,171,188);"/>
            </g>
            <g transform="matrix(1.12011,-0.000436821,-0.000262541,1.77251,-3222.29,-12361)">
                <path d="M5541.69,7382.36L5542.55,7562.32L5571.21,7562.19L5570.35,7382.22L5541.69,7382.36Z" style="fill:rgb(134,171,188);"/>
            </g>
            <g transform="matrix(1.12011,-0.000436821,-0.000262541,1.77251,-3222.29,-12361)">
                <path d="M5541.69,7382.36L5542.55,7562.32L5571.21,7562.19L5570.35,7382.22L5541.69,7382.36Z" style="fill:rgb(134,171,188);"/>
            </g>
            <g transform="matrix(1.12011,0.000401015,0.000241021,1.94734,-3226.07,-13672.4)">
                <path d="M5554.02,7382.3L5554.88,7562.27L5558.88,7562.25L5558.02,7382.28L5554.02,7382.3Z" style="fill:rgb(134,171,188);"/>
            </g>
            <g transform="matrix(1.12011,0.000401015,0.000241021,1.94734,-3226.07,-13672.4)">
                <path d="M5554.02,7382.3L5554.88,7562.27L5558.88,7562.25L5558.02,7382.28L5554.02,7382.3Z" style="fill:rgb(134,171,188);"/>
            </g>
            <g transform="matrix(1.12011,0.000401015,0.000241021,1.94734,-3226.07,-13672.4)">
                <path d="M5554.02,7382.3L5554.88,7562.27L5558.88,7562.25L5558.02,7382.28L5554.02,7382.3Z" style="fill:rgb(134,171,188);"/>
            </g>
            <g transform="matrix(1.12011,0.000401015,0.000241021,1.94734,-3226.07,-13672.4)">
                <path d="M5554.02,7382.3L5554.88,7562.27L5558.88,7562.25L5558.02,7382.28L5554.02,7382.3Z" style="fill:rgb(134,171,188);"/>
            </g>
            <g transform="matrix(1.1201,-0.0040866,-0.00245615,1.01088,-3148.26,-6606.35)">
                <path d="M5541.69,7382.36L5542.55,7562.32L5571.21,7562.19L5570.35,7382.22L5541.69,7382.36Z" style="fill:rgb(71,81,99);"/>
            </g>
            <g transform="matrix(1.1201,-0.0040866,-0.00245615,1.01088,-3148.26,-6606.35)">
                <path d="M5541.69,7382.36L5542.55,7562.32L5571.21,7562.19L5570.35,7382.22L5541.69,7382.36Z" style="fill:rgb(71,81,99);"/>
            </g>
            <g transform="matrix(1.1201,-0.0040866,-0.00245615,1.01088,-3148.26,-6606.35)">
                <path d="M5541.69,7382.36L5542.55,7562.32L5571.21,7562.19L5570.35,7382.22L5541.69,7382.36Z" style="fill:rgb(71,81,99);"/>
            </g>
            <g transform="matrix(1.1201,-0.0040866,-0.00245615,1.01088,-3148.26,-6606.35)">
                <path d="M5541.69,7382.36L5542.55,7562.32L5571.21,7562.19L5570.35,7382.22L5541.69,7382.36Z" style="fill:rgb(71,81,99);"/>
            </g>
            <g transform="matrix(1.12011,0.0016573,0.000996079,2.2095,-3174.05,-15561.1)">
                <path d="M5554.02,7382.3L5554.88,7562.27L5558.88,7562.25L5558.02,7382.28L5554.02,7382.3Z" style="fill:rgb(71,81,99);"/>
            </g>
            <g transform="matrix(1.12011,0.0016573,0.000996079,2.2095,-3174.05,-15561.1)">
                <path d="M5554.02,7382.3L5554.88,7562.27L5558.88,7562.25L5558.02,7382.28L5554.02,7382.3Z" style="fill:rgb(71,81,99);"/>
            </g>
            <g transform="matrix(1.12011,0.0016573,0.000996079,2.2095,-3174.05,-15561.1)">
                <path d="M5554.02,7382.3L5554.88,7562.27L5558.88,7562.25L5558.02,7382.28L5554.02,7382.3Z" style="fill:rgb(71,81,99);"/>
            </g>
            <g transform="matrix(1.12011,0.0016573,0.000996079,2.2095,-3174.05,-15561.1)">
                <path d="M5554.02,7382.3L5554.88,7562.27L5558.88,7562.25L5558.02,7382.28L5554.02,7382.3Z" style="fill:rgb(71,81,99);"/>
            </g>
            <g transform="matrix(1.12009,-0.00666331,-0.00400482,0.473178,-3078.06,-2525.8)">
                <path d="M5541.69,7382.36L5542.55,7562.32L5571.21,7562.19L5570.35,7382.22L5541.69,7382.36Z" style="fill:rgb(71,81,99);"/>
            </g>
            <g transform="matrix(1.12009,-0.00666331,-0.00400482,0.473178,-3078.06,-2525.8)">
                <path d="M5541.69,7382.36L5542.55,7562.32L5571.21,7562.19L5570.35,7382.22L5541.69,7382.36Z" style="fill:rgb(71,81,99);"/>
            </g>
            <g transform="matrix(1.12009,-0.00666331,-0.00400482,0.473178,-3078.06,-2525.8)">
                <path d="M5541.69,7382.36L5542.55,7562.32L5571.21,7562.19L5570.35,7382.22L5541.69,7382.36Z" style="fill:rgb(71,81,99);"/>
            </g>
            <g transform="matrix(1.12009,-0.00666331,-0.00400482,0.473178,-3078.06,-2525.8)">
                <path d="M5541.69,7382.36L5542.55,7562.32L5571.21,7562.19L5570.35,7382.22L5541.69,7382.36Z" style="fill:rgb(71,81,99);"/>
            </g>
            <g transform="matrix(1.12009,-0.00496549,-0.00298439,0.827474,-3085.7,-5177.97)">
                <path d="M5554.02,7382.3L5554.88,7562.27L5558.88,7562.25L5558.02,7382.28L5554.02,7382.3Z" style="fill:rgb(71,81,99);"/>
            </g>
            <g transform="matrix(1.12009,-0.00496549,-0.00298439,0.827474,-3085.7,-5177.97)">
                <path d="M5554.02,7382.3L5554.88,7562.27L5558.88,7562.25L5558.02,7382.28L5554.02,7382.3Z" style="fill:rgb(71,81,99);"/>
            </g>
            <g transform="matrix(1.12009,-0.00496549,-0.00298439,0.827474,-3085.7,-5177.97)">
                <path d="M5554.02,7382.3L5554.88,7562.27L5558.88,7562.25L5558.02,7382.28L5554.02,7382.3Z" style="fill:rgb(71,81,99);"/>
            </g>
            <g transform="matrix(1.12009,-0.00496549,-0.00298439,0.827474,-3085.7,-5177.97)">
                <path d="M5554.02,7382.3L5554.88,7562.27L5558.88,7562.25L5558.02,7382.28L5554.02,7382.3Z" style="fill:rgb(71,81,99);"/>
            </g>
            <g transform="matrix(1.12009,-0.00695623,-0.00418088,0.412052,-4415.92,-1690.25)">
                <path d="M5541.69,7382.36L5542.55,7562.32L5571.21,7562.19L5570.35,7382.22L5541.69,7382.36Z" style="fill:rgb(134,171,188);"/>
            </g>
            <g transform="matrix(1.12009,-0.00695623,-0.00418088,0.412052,-4415.92,-1690.25)">
                <path d="M5541.69,7382.36L5542.55,7562.32L5571.21,7562.19L5570.35,7382.22L5541.69,7382.36Z" style="fill:rgb(134,171,188);"/>
            </g>
            <g transform="matrix(1.12009,-0.00695623,-0.00418088,0.412052,-4415.92,-1690.25)">
                <path d="M5541.69,7382.36L5542.55,7562.32L5571.21,7562.19L5570.35,7382.22L5541.69,7382.36Z" style="fill:rgb(134,171,188);"/>
            </g>
            <g transform="matrix(1.12009,-0.00695623,-0.00418088,0.412052,-4415.92,-1690.25)">
                <path d="M5541.69,7382.36L5542.55,7562.32L5571.21,7562.19L5570.35,7382.22L5541.69,7382.36Z" style="fill:rgb(134,171,188);"/>
            </g>
            <g transform="matrix(1.12009,-0.00518742,-0.00311778,0.781162,-4423.92,-4466.59)">
                <path d="M5554.02,7382.3L5554.88,7562.27L5558.88,7562.25L5558.02,7382.28L5554.02,7382.3Z" style="fill:rgb(134,171,188);"/>
            </g>
            <g transform="matrix(1.12009,-0.00518742,-0.00311778,0.781162,-4423.92,-4466.59)">
                <path d="M5554.02,7382.3L5554.88,7562.27L5558.88,7562.25L5558.02,7382.28L5554.02,7382.3Z" style="fill:rgb(134,171,188);"/>
            </g>
            <g transform="matrix(1.12009,-0.00518742,-0.00311778,0.781162,-4423.92,-4466.59)">
                <path d="M5554.02,7382.3L5554.88,7562.27L5558.88,7562.25L5558.02,7382.28L5554.02,7382.3Z" style="fill:rgb(134,171,188);"/>
            </g>
            <g transform="matrix(1.12009,-0.00518742,-0.00311778,0.781162,-4423.92,-4466.59)">
                <path d="M5554.02,7382.3L5554.88,7562.27L5558.88,7562.25L5558.02,7382.28L5554.02,7382.3Z" style="fill:rgb(134,171,188);"/>
            </g>
        </g>
    </g>
</svg>
