<svg width="26" height="26" viewBox="0 0 26 26" fill="none" xmlns="http://www.w3.org/2000/svg">
<mask id="mask0_32_5723" style="mask-type:alpha" maskUnits="userSpaceOnUse" x="0" y="0" width="26" height="26">
<rect width="26" height="26" fill="#D9D9D9"/>
</mask>
<g mask="url(#mask0_32_5723)">
<path d="M5.41667 22.75C4.82083 22.75 4.31076 22.5378 3.88646 22.1135C3.46215 21.6892 3.25 21.1792 3.25 20.5833V5.41667C3.25 4.82083 3.46215 4.31076 3.88646 3.88646C4.31076 3.46215 4.82083 3.25 5.41667 3.25H20.5833C20.7278 3.25 20.8632 3.26354 20.9896 3.29063C21.116 3.31771 21.2424 3.35833 21.3688 3.4125L19.3646 5.41667H5.41667V20.5833H20.5833V13.3792L22.75 11.2125V20.5833C22.75 21.1792 22.5378 21.6892 22.1135 22.1135C21.6892 22.5378 21.1792 22.75 20.5833 22.75H5.41667ZM12.4854 18.4167L6.36458 12.2958L7.88125 10.7792L12.4854 15.3833L22.425 5.44375L23.9688 6.93333L12.4854 18.4167Z" fill="#38A169"/>
</g>
</svg>
